<svg width="842" height="352" viewBox="0 0 842 352" fill="none" xmlns="http://www.w3.org/2000/svg">
<rect width="842" height="352" fill="white"/>
<g clip-path="url(#clip0_467_385)">
<path fill-rule="evenodd" clip-rule="evenodd" d="M197.084 39C120.174 39 58 101.562 58 178.961C58 240.829 97.8372 293.2 153.102 311.736C160.012 313.129 162.542 308.724 162.542 305.019C162.542 301.774 162.315 290.652 162.315 279.064C123.625 287.407 115.568 262.379 115.568 262.379C109.35 246.159 100.138 241.99 100.138 241.99C87.4744 233.416 101.06 233.416 101.06 233.416C115.107 234.343 122.477 247.782 122.477 247.782C134.91 269.099 154.944 263.076 163.004 259.368C164.154 250.33 167.841 244.074 171.755 240.599C140.897 237.354 108.431 225.305 108.431 171.544C108.431 156.251 113.954 143.738 122.705 134.007C121.324 130.532 116.488 116.162 124.089 96.93C124.089 96.93 135.832 93.2218 162.312 111.297C173.649 108.233 185.34 106.674 197.084 106.661C208.828 106.661 220.799 108.285 231.854 111.297C258.336 93.2218 270.08 96.93 270.08 96.93C277.681 116.162 272.841 130.532 271.461 134.007C280.443 143.738 285.738 156.251 285.738 171.544C285.738 225.305 253.272 237.121 222.183 240.599C227.251 245.001 231.623 253.342 231.623 266.551C231.623 285.32 231.396 300.383 231.396 305.016C231.396 308.724 233.929 313.129 240.836 311.738C296.101 293.197 335.938 240.829 335.938 178.961C336.166 101.562 273.764 39 197.084 39Z" fill="#24292F"/>
</g>
<path d="M425.172 200.906V210H382.234V142.359H425.172V151.406H392.734V171.188H423.438V179.906H392.734V200.906H425.172ZM453.634 210.844C441.165 210.844 432.915 200.906 432.915 185.344C432.915 169.781 441.165 159.891 453.54 159.891C460.618 159.891 466.243 163.453 469.009 168.891H469.196V142.359H479.368V210H469.525V201.609H469.337C466.431 207.234 460.806 210.844 453.634 210.844ZM456.306 168.422C448.29 168.422 443.275 174.984 443.275 185.344C443.275 195.75 448.29 202.266 456.306 202.266C464.087 202.266 469.29 195.656 469.29 185.344C469.29 175.125 464.087 168.422 456.306 168.422ZM532.44 160.688V210H522.737V201.656H522.502C519.784 207.562 514.768 210.891 507.221 210.891C496.487 210.891 489.924 203.906 489.924 192.609V160.688H500.049V190.641C500.049 198.141 503.612 202.172 510.596 202.172C517.909 202.172 522.315 197.109 522.315 189.422V160.688H532.44ZM585.183 177.656H575.527C574.496 172.406 570.558 168.234 563.949 168.234C556.121 168.234 550.964 174.75 550.964 185.344C550.964 196.172 556.168 202.453 564.043 202.453C570.277 202.453 574.355 199.031 575.527 193.312H585.277C584.199 203.812 575.808 210.938 563.949 210.938C549.839 210.938 540.652 201.281 540.652 185.344C540.652 169.688 549.839 159.797 563.855 159.797C576.558 159.797 584.293 167.953 585.183 177.656ZM610.083 202.828C617.161 202.828 622.692 197.953 622.692 191.531V187.641L610.552 188.391C604.505 188.812 601.083 191.484 601.083 195.703C601.083 200.016 604.645 202.828 610.083 202.828ZM607.27 210.844C597.614 210.844 590.864 204.844 590.864 195.984C590.864 187.359 597.473 182.062 609.192 181.406L622.692 180.609V176.812C622.692 171.328 618.989 168.047 612.802 168.047C606.942 168.047 603.286 170.859 602.395 175.266H592.833C593.395 166.359 600.989 159.797 613.177 159.797C625.13 159.797 632.77 166.125 632.77 176.016V210H623.067V201.891H622.833C619.973 207.375 613.739 210.844 607.27 210.844ZM645.951 149.016H656.123V160.688H665.498V168.703H656.123V195.891C656.123 200.156 657.998 202.078 662.123 202.078C663.154 202.078 664.795 201.984 665.451 201.844V209.859C664.326 210.141 662.076 210.328 659.826 210.328C649.842 210.328 645.951 206.531 645.951 197.016V168.703H638.779V160.688H645.951V149.016ZM674.554 210V160.688H684.679V210H674.554ZM679.616 153.469C676.382 153.469 673.757 150.891 673.757 147.703C673.757 144.469 676.382 141.891 679.616 141.891C682.898 141.891 685.523 144.469 685.523 147.703C685.523 150.891 682.898 153.469 679.616 153.469ZM716.61 210.938C702.5 210.938 693.219 201.234 693.219 185.344C693.219 169.5 702.547 159.797 716.61 159.797C730.672 159.797 740 169.5 740 185.344C740 201.234 730.719 210.938 716.61 210.938ZM716.61 202.594C724.579 202.594 729.688 196.312 729.688 185.344C729.688 174.422 724.532 168.141 716.61 168.141C708.688 168.141 703.532 174.422 703.532 185.344C703.532 196.312 708.688 202.594 716.61 202.594ZM748.213 210V160.688H757.869V168.938H758.103C760.775 163.312 766.025 159.844 773.619 159.844C784.494 159.844 790.728 166.781 790.728 178.078V210H780.556V180.047C780.556 172.641 777.088 168.562 770.056 168.562C762.931 168.562 758.338 173.625 758.338 181.266V210H748.213Z" fill="black"/>
<defs>
<clipPath id="clip0_467_385">
<rect width="279" height="273" fill="white" transform="translate(58 39)"/>
</clipPath>
</defs>
</svg>
