<svg width="936" height="240" viewBox="0 0 936 240" fill="none" xmlns="http://www.w3.org/2000/svg">
<path d="M928.232 204.519L914.505 223.153C912.528 225.762 910.601 227.001 908.417 226.645C906.737 226.372 895.414 221.769 888.299 212.505C878.824 215.618 869.423 216.157 860.855 214.762C832.797 210.194 812.105 184.749 816.509 157.7C819.792 137.538 838.805 110.798 872.071 116.214C880.472 117.582 888.403 120.77 894.491 124.693C895.69 123.681 897.284 123.423 899.301 123.752L900.141 123.888L928.796 131.141C933.11 132.188 933.93 134.564 933.602 136.58L933.465 137.42C928.624 152.326 923.892 166.56 922.086 177.649C920.445 187.73 921.117 195.255 926.028 198.986C927.571 200.1 929.255 201.409 928.982 203.089C928.927 203.425 928.677 203.902 928.232 204.519ZM881.001 184.239C881.208 179.789 881.638 175.03 882.486 169.822C883.198 165.453 884.104 160.944 885.261 155.959C883.792 152.27 879.639 149.18 874.766 148.386C864.182 146.663 856.633 155.954 855.237 164.523C853.706 173.931 858.945 183.063 869.866 184.841C873.058 185.36 876.863 185.29 881.001 184.239Z" fill="#EC3750"/>
<path d="M811.416 171.793L810.895 177.387C810.012 186.878 811.506 194.71 817.856 201.797C818.794 202.74 820.331 204.592 820.158 206.457C820.063 207.474 819.46 208.443 818.195 209.18C818.163 209.519 800.264 219.992 800.264 219.992C798.443 221.19 796.7 221.541 795.175 221.399C792.124 221.115 765.841 209.609 768.649 179.439L769.185 173.676C770.841 155.88 762.891 147.618 750.581 145.789L741.636 207.014C741.478 208.709 739.811 210.093 738.116 209.935L737.777 209.903L704.036 205.054C702.018 204.696 700.804 203.044 700.993 201.01L713.771 113.301C714.114 111.452 715.781 110.068 717.476 110.226L717.815 110.258L736.703 113.041C743.439 112.3 749.774 112.206 755.875 112.773C790.282 115.975 814.428 139.421 811.416 171.793Z" fill="#EC3750"/>
<path d="M681.304 201.738L648.184 193.676L647.858 193.579C646.063 193.046 645.194 191.189 645.564 189.346L665.089 108.667C665.671 106.709 667.413 105.628 669.419 106.047L702.539 114.109L702.866 114.206C704.497 114.691 705.53 116.596 705.045 118.227L685.471 199.069L685.374 199.396C684.889 201.027 682.984 202.06 681.304 201.738ZM716.526 89.1416C712.6 102.359 698.631 109.93 685.414 106.003C672.033 102.029 664.463 88.0601 668.389 74.8428C672.363 61.4623 686.332 53.8918 699.713 57.8663C712.93 61.7925 720.501 75.7612 716.526 89.1416Z" fill="#EC3750"/>
<path d="M584.305 202.225L567.697 197.781C564.408 196.901 561.624 195.451 560.651 191.843L542.09 110.401C541.708 108.536 541.731 107.133 542.039 105.982C542.523 104.173 543.818 103.286 545.847 102.948C550.277 102.195 574.195 99.0791 577.648 100.003C580.114 100.663 581.451 102.254 581.833 104.118L589.382 149.663C589.491 150.573 589.897 151.034 590.226 151.122C590.719 151.254 591.136 151.013 591.893 150.158C601.212 138.379 616.724 116.626 618.623 114.139C620.182 112.265 622.09 111.718 624.228 112.29C625.379 112.598 626.486 113.071 627.67 113.916L647.9 126.554C651.375 128.717 652.414 130.757 651.799 133.059C651.095 135.69 617.255 189.72 592.365 201.738C590.369 202.614 587.265 203.017 584.305 202.225Z" fill="#EC3750"/>
<path d="M542.138 156.521C542.138 189.715 508.434 208.269 484.262 208.269C456.516 208.269 432.174 188.183 432.174 158.224C432.174 123.158 458.388 104.944 488.348 104.944C525.967 104.944 542.138 134.392 542.138 156.521ZM488.348 175.757C500.433 175.757 505.881 165.884 505.881 156.181C505.881 152.947 505.2 136.435 487.837 136.435C473.538 136.435 469.453 148.521 469.453 156.181C469.453 167.926 478.645 175.757 488.348 175.757Z" fill="#EC3750"/>
<path d="M424.184 156.227L405.518 171.292C403.681 172.7 402.085 173.293 400.453 172.809C399.637 172.567 398.754 171.951 397.969 171.008C390.732 162.473 374.054 143.862 367.277 136.173C366.491 135.23 365.899 133.634 366.334 132.166C366.576 131.349 367.144 130.63 368.25 129.893L384.631 118.945C374.905 121.212 366.189 123.068 362.441 123.733L361.317 123.933L354.518 152.277C353.937 154.236 352.148 155.481 350.19 154.901L317.015 147.026C315.22 146.494 313.975 144.705 314.392 142.698L347.039 7.32304L347.136 6.99661C347.619 5.36449 349.523 4.33074 351.204 4.65104L384.33 12.6891L384.656 12.7858C386.452 13.3176 387.322 15.1733 386.954 17.017L369.995 87.4459C378.234 84.2054 412.495 71.6306 419.677 73.758C420.983 74.1449 422.258 75.2329 422.935 77.7414L429.954 103.788C430.317 104.961 430.353 106.037 430.063 107.016C429.58 108.648 428.165 109.827 425.917 110.226C421.256 110.976 410.454 113.279 399.066 115.764C409.427 122.74 428.083 147.263 426.294 153.301C426.004 154.281 425.387 155.163 424.184 156.227Z" fill="#EC3750"/>
<path d="M318.309 108.279L312.347 129.555C311.868 131.655 310.169 133.531 308.136 133.729C307.459 133.795 306.579 133.539 305.851 133.097C302.554 130.853 296.442 129.568 290.513 130.147C286.108 130.577 271.467 133.032 273.27 151.499C274.378 162.85 283.237 169.51 294.249 168.436C301.534 167.725 309.691 163.679 317.096 155.431C318.013 154.315 319.455 153.319 320.98 153.17C322.166 153.055 323.587 153.6 324.972 155.517C328.583 160.98 330.914 163.831 334.17 169.157C334.778 170.124 335.232 171.277 335.348 172.463C335.547 174.496 334.881 176.442 333.047 178.674C320.597 193.058 304.895 200.406 289.647 201.894C261.524 204.639 234.701 187.417 231.791 157.599C228.087 119.649 256.909 101.273 284.863 98.5444C303.668 96.7091 317.949 102.841 318.363 107.076C318.396 107.415 318.445 107.923 318.309 108.279Z" fill="#EC3750"/>
<path d="M231.325 176.974L218.09 195.959C216.181 198.62 214.288 199.908 212.095 199.61C210.409 199.38 198.969 195.074 191.615 185.998C182.224 189.358 172.841 190.143 164.239 188.971C136.071 185.137 114.722 160.241 118.419 133.085C121.175 112.845 139.484 85.6176 172.88 90.164C181.313 91.3121 189.325 94.2926 195.513 98.0555C196.686 97.0126 198.273 96.7132 200.297 96.9888L201.14 97.1036L229.975 103.606C234.315 104.54 235.197 106.894 234.921 108.918L234.806 109.761C230.355 124.788 225.996 139.141 224.481 150.273C223.103 160.393 223.971 167.898 228.978 171.501C230.55 172.573 232.268 173.838 232.038 175.525C231.992 175.862 231.755 176.345 231.325 176.974ZM183.582 157.933C183.673 153.479 183.979 148.71 184.69 143.482C185.287 139.096 186.076 134.565 187.102 129.551C185.538 125.902 181.305 122.921 176.414 122.255C165.788 120.809 158.484 130.294 157.312 138.896C156.027 148.341 161.502 157.333 172.466 158.825C175.671 159.261 179.473 159.092 183.582 157.933Z" fill="#EC3750"/>
<path d="M133.192 187.05L118.766 202.206C117.095 203.956 115.468 204.671 113.948 204.858C113.272 204.942 81.3093 203.05 77.0816 168.755C74.5616 148.312 64.2052 142.214 52.0412 143.714L51.1965 143.818L58.7564 205.145C59.0063 207.172 57.6733 208.88 55.8149 209.109L22.026 213.274C19.9987 213.524 18.2907 212.191 18.0408 210.164L1.00489 71.9671C0.775802 70.1087 2.08804 68.2318 4.11537 67.9819L37.9043 63.8167C39.7627 63.5876 41.4914 65.0896 41.7205 66.948L47.1353 110.874C49.1419 110.455 51.1692 110.205 53.0276 109.976C84.7891 106.06 112.463 121.858 117.094 155.247C118.616 166.207 121.854 174.384 130.945 179.952C132.062 180.672 134.129 182.132 134.358 183.991C134.462 184.835 134.249 185.891 133.192 187.05Z" fill="#EC3750"/>
<mask id="mask0_266_81" style="mask-type:alpha" maskUnits="userSpaceOnUse" x="1" y="4" width="934" height="223">
<path d="M928.863 204.04L915.136 222.674C913.159 225.284 911.233 226.522 909.049 226.167C907.369 225.893 896.045 221.29 888.931 212.026C879.455 215.14 870.055 215.678 861.486 214.283C833.428 209.715 812.736 184.27 817.14 157.221C820.423 137.059 839.436 110.319 872.702 115.735C881.103 117.103 889.035 120.291 895.122 124.214C896.322 123.202 897.916 122.945 899.932 123.273L900.772 123.41L929.428 130.662C933.741 131.709 934.562 134.085 934.233 136.101L934.096 136.941C929.255 151.847 924.523 166.081 922.718 177.17C921.076 187.251 921.748 194.776 926.659 198.508C928.203 199.621 929.887 200.93 929.613 202.61C929.558 202.946 929.308 203.423 928.863 204.04ZM881.633 183.76C881.84 179.31 882.27 174.551 883.118 169.343C883.829 164.974 884.736 160.466 885.892 155.48C884.423 151.791 880.27 148.701 875.398 147.907C864.813 146.184 857.264 155.475 855.869 164.044C854.337 173.452 859.576 182.584 870.497 184.362C873.689 184.882 877.495 184.811 881.633 183.76Z" fill="#EC3750"/>
<path d="M812.047 171.314L811.527 176.908C810.644 186.399 812.137 194.231 818.487 201.319C819.425 202.261 820.962 204.113 820.789 205.978C820.694 206.995 820.091 207.964 818.826 208.701C818.794 209.04 800.895 219.513 800.895 219.513C799.074 220.711 797.332 221.062 795.806 220.92C792.755 220.636 766.473 209.13 769.28 178.96L769.816 173.198C771.472 155.401 763.522 147.139 751.212 145.31L742.267 206.535C742.109 208.23 740.442 209.614 738.747 209.456L738.408 209.425L704.668 204.575C702.649 204.217 701.435 202.565 701.625 200.531L714.402 112.822C714.745 110.973 716.412 109.589 718.107 109.747L718.446 109.779L737.334 112.562C744.071 111.821 750.405 111.727 756.507 112.295C790.913 115.496 815.06 138.942 812.047 171.314Z" fill="#EC3750"/>
<path d="M681.935 201.259L648.815 193.197L648.489 193.1C646.694 192.567 645.825 190.711 646.195 188.867L665.721 108.188C666.302 106.23 668.044 105.149 670.051 105.568L703.171 113.63L703.497 113.727C705.129 114.212 706.161 116.117 705.676 117.749L686.102 198.59L686.005 198.917C685.52 200.549 683.616 201.581 681.935 201.259ZM717.157 88.6628C713.231 101.88 699.262 109.451 686.045 105.525C672.665 101.55 665.094 87.5812 669.02 74.3639C672.995 60.9835 686.964 53.4129 700.344 57.3875C713.561 61.3136 721.132 75.2823 717.157 88.6628Z" fill="#EC3750"/>
<path d="M584.937 201.746L568.328 197.302C565.039 196.422 562.255 194.972 561.283 191.364L542.722 109.922C542.339 108.058 542.363 106.654 542.671 105.503C543.155 103.694 544.449 102.807 546.478 102.469C550.909 101.716 574.826 98.6002 578.279 99.5242C580.746 100.184 582.082 101.775 582.464 103.64L590.014 149.184C590.123 150.094 590.528 150.555 590.857 150.643C591.35 150.775 591.767 150.534 592.524 149.679C601.844 137.9 617.356 116.147 619.255 113.66C620.813 111.786 622.722 111.239 624.859 111.811C626.01 112.119 627.117 112.592 628.301 113.437L648.532 126.075C652.006 128.238 653.046 130.278 652.43 132.581C651.726 135.212 617.886 189.241 592.996 201.259C591 202.135 587.896 202.538 584.937 201.746Z" fill="#EC3750"/>
<path d="M542.769 156.043C542.769 189.236 509.065 207.79 484.894 207.79C457.147 207.79 432.805 187.704 432.805 157.745C432.805 122.679 459.02 104.465 488.979 104.465C526.598 104.465 542.769 133.913 542.769 156.043ZM488.979 175.278C501.065 175.278 506.512 165.405 506.512 155.702C506.512 152.468 505.831 135.956 488.468 135.956C474.169 135.956 470.084 148.042 470.084 155.702C470.084 167.447 479.276 175.278 488.979 175.278Z" fill="#EC3750"/>
<path d="M424.815 155.748L406.15 170.813C404.312 172.221 402.716 172.814 401.084 172.33C400.268 172.089 399.386 171.472 398.6 170.529C391.364 161.994 374.685 143.383 367.909 135.694C367.123 134.751 366.53 133.156 366.965 131.687C367.207 130.871 367.775 130.151 368.882 129.414L385.263 118.466C375.537 120.733 366.82 122.589 363.072 123.254L361.948 123.454L355.149 151.798C354.569 153.757 352.779 155.002 350.821 154.422L317.647 146.547C315.851 146.015 314.606 144.226 315.023 142.219L347.671 6.84416L347.767 6.51773C348.251 4.88561 350.155 3.85186 351.835 4.17215L384.961 12.2102L385.288 12.3069C387.083 12.8387 387.954 14.6945 387.585 16.5381L370.626 86.967C378.865 83.7266 413.127 71.1517 420.308 73.2792C421.614 73.666 422.889 74.754 423.566 77.2626L430.586 103.309C430.948 104.482 430.985 105.558 430.695 106.537C430.211 108.169 428.797 109.348 426.548 109.747C421.888 110.497 411.086 112.801 399.697 115.285C410.058 122.261 428.714 146.784 426.925 152.822C426.635 153.802 426.018 154.684 424.815 155.748Z" fill="#EC3750"/>
<path d="M318.94 107.8L312.978 129.077C312.499 131.176 310.801 133.052 308.768 133.25C308.09 133.316 307.21 133.06 306.483 132.618C303.185 130.374 297.074 129.089 291.144 129.668C286.739 130.098 272.099 132.553 273.901 151.02C275.009 162.371 283.869 169.031 294.881 167.957C302.166 167.246 310.322 163.2 317.727 154.952C318.644 153.836 320.086 152.84 321.611 152.692C322.797 152.576 324.219 153.121 325.603 155.038C329.215 160.501 331.545 163.352 334.802 168.678C335.409 169.645 335.864 170.798 335.979 171.984C336.178 174.017 335.513 175.963 333.678 178.195C321.228 192.579 305.526 199.927 290.279 201.415C262.155 204.16 235.333 186.938 232.423 157.12C228.719 119.171 257.54 100.794 285.494 98.0656C304.299 96.2302 318.581 102.362 318.994 106.597C319.027 106.936 319.077 107.444 318.94 107.8Z" fill="#EC3750"/>
<path d="M231.957 176.495L218.721 195.48C216.813 198.141 214.919 199.429 212.727 199.131C211.04 198.901 199.601 194.595 192.246 185.52C182.856 188.88 173.472 189.664 164.87 188.493C136.703 184.658 115.354 159.762 119.051 132.607C121.806 112.366 140.115 85.1387 173.511 89.6852C181.945 90.8333 189.957 93.8137 196.144 97.5766C197.317 96.5337 198.904 96.2343 200.928 96.5099L201.771 96.6247L230.606 103.127C234.946 104.061 235.828 106.415 235.553 108.439L235.438 109.282C230.987 124.31 226.628 138.662 225.112 149.794C223.735 159.914 224.603 167.419 229.61 171.022C231.181 172.095 232.899 173.359 232.669 175.046C232.623 175.383 232.386 175.866 231.957 176.495ZM184.213 157.454C184.304 153 184.61 148.232 185.322 143.003C185.919 138.618 186.707 134.086 187.734 129.072C186.169 125.423 181.936 122.442 177.045 121.776C166.419 120.33 159.115 129.815 157.944 138.417C156.658 147.862 162.134 156.854 173.097 158.346C176.302 158.782 180.104 158.613 184.213 157.454Z" fill="#EC3750"/>
<path d="M133.823 186.571L119.398 201.727C117.727 203.477 116.1 204.192 114.579 204.38C113.904 204.463 81.9407 202.572 77.713 168.276C75.193 147.834 64.8366 141.735 52.6725 143.235L51.8278 143.339L59.3878 204.666C59.6377 206.693 58.3046 208.401 56.4462 208.63L22.6573 212.795C20.63 213.045 18.9221 211.712 18.6721 209.685L1.63624 71.4882C1.40715 69.6298 2.71939 67.753 4.74672 67.503L38.5356 63.3378C40.394 63.1087 42.1228 64.6107 42.3519 66.4691L47.7667 110.395C49.7732 109.976 51.8005 109.726 53.6589 109.497C85.4205 105.581 113.095 121.379 117.725 154.768C119.248 165.728 122.485 173.905 131.576 179.473C132.694 180.193 134.76 181.653 134.989 183.512C135.094 184.356 134.881 185.412 133.823 186.571Z" fill="#EC3750"/>
</mask>
<g mask="url(#mask0_266_81)">
<path d="M176.176 185.169L107.026 163.918C68.5508 152.094 27.8395 174.029 16.5527 212.665C3.49334 257.368 35.5662 302.553 82.0747 304.973L852.656 345.078C899.023 347.491 934.908 305.016 924.785 259.704L922.057 247.491C914.395 213.195 878.625 193.17 845.383 204.567C826.225 211.136 805.037 207.413 789.265 194.708L779.444 186.797C762.25 172.946 738.204 171.406 719.383 182.949L716.513 184.71C697.608 196.305 673.218 193.423 657.537 177.741C644.144 164.348 624.123 160.094 606.441 166.883L565.75 182.509C539.922 192.427 510.923 189.527 487.57 174.691L471.102 164.229C457.452 155.558 440.439 154.062 425.485 160.219C411.935 165.799 396.615 165.12 383.611 158.365L370.039 151.315C348.366 140.056 322.824 138.956 300.263 148.311L273.871 159.254C266.757 162.203 260.074 166.099 254.001 170.835C231.955 188.032 202.902 193.382 176.176 185.169Z" fill="#252429"/>
<path opacity="0.5" d="M176.176 170.984L107.026 149.733C68.5508 137.909 27.8395 159.844 16.5527 198.48C3.49334 243.183 35.5662 288.367 82.0747 290.788L852.656 330.892C899.023 333.306 934.908 290.831 924.785 245.518L922.057 233.306C914.395 199.009 878.625 178.985 845.383 190.382C826.225 196.95 805.037 193.228 789.265 180.523L779.444 172.612C762.25 158.761 738.204 157.221 719.383 168.764L716.513 170.524C697.608 182.119 673.218 179.237 657.537 163.556C644.144 150.163 624.123 145.908 606.441 152.698L565.75 168.324C539.922 178.242 510.923 175.342 487.57 160.506L471.102 150.044C457.452 141.372 440.439 139.877 425.485 146.034C411.935 151.613 396.615 150.935 383.611 144.18L370.039 137.129C348.366 125.871 322.824 124.771 300.263 134.125L273.871 145.069C266.757 148.018 260.074 151.914 254.001 156.65C231.955 173.846 202.902 179.197 176.176 170.984Z" fill="#252429"/>
<path opacity="0.25" d="M176.176 160.345L107.026 139.094C68.5508 127.27 27.8395 149.205 16.5527 187.841C3.49334 232.544 35.5662 277.728 82.0747 280.149L852.656 320.253C899.023 322.667 934.908 280.192 924.785 234.879L922.057 222.667C914.395 188.37 878.625 168.346 845.383 179.743C826.225 186.311 805.037 182.589 789.265 169.884L779.444 161.973C762.25 148.122 738.204 146.581 719.383 158.125L716.513 159.885C697.608 171.48 673.218 168.598 657.537 152.917C644.144 139.524 624.123 135.269 606.441 142.059L565.75 157.685C539.922 167.603 510.923 164.703 487.57 149.867L471.102 139.405C457.452 130.733 440.439 129.238 425.485 135.395C411.935 140.974 396.615 140.296 383.611 133.541L370.039 126.49C348.366 115.232 322.824 114.132 300.263 123.486L273.871 134.429C266.757 137.379 260.074 141.275 254.001 146.011C231.955 163.207 202.902 168.558 176.176 160.345Z" fill="#252429"/>
</g>
<g clip-path="url(#clip0_266_81)">
<path d="M95.0809 105.197C83.7707 103.41 87.5722 95.5027 84.0935 92.6135M106.068 117.78L109.746 110.13C110.274 109.223 110.602 108.214 110.709 107.17C110.816 106.126 110.7 105.072 110.368 104.076C116.909 106.369 124.563 107.152 129.753 96.3583C131.079 93.5979 131.293 90.4332 130.351 87.5192C132.413 85.5376 133.633 82.8378 133.756 79.9806C133.756 79.9806 131.756 78.1673 124.62 79.1905C120.679 75.7843 115.903 73.4881 110.781 72.5379C107.123 66.3256 104.458 65.8961 104.458 65.8961C102.304 67.777 100.957 70.4156 100.697 73.2636C97.8114 74.3558 95.4611 76.5232 94.1391 79.3109C88.9881 90.0259 94.3811 95.5147 100.218 99.2698C99.2445 99.6293 98.3576 100.19 97.6149 100.915C96.8723 101.639 96.2906 102.512 95.9077 103.477L92.2298 111.128" stroke="#EC3750" stroke-width="2" stroke-linecap="round" stroke-linejoin="round"/>
</g>
<g clip-path="url(#clip1_266_81)">
<path d="M830.023 120.538L800.886 121.698L790.787 94.3426C790.653 93.9735 790.639 93.5716 790.747 93.1944C790.856 92.8171 791.081 92.4837 791.39 92.242L798.286 86.7793L812.017 75.9459C812.136 75.8623 812.273 75.8077 812.416 75.7864C812.651 75.7506 812.891 75.8038 813.089 75.9358C813.287 76.0678 813.428 76.269 813.485 76.4997C813.518 76.6544 813.512 76.8151 813.466 76.9666L808.749 93.7648L823.67 103.726L837.401 92.893C837.52 92.8094 837.657 92.7548 837.801 92.7336C838.035 92.6977 838.275 92.751 838.473 92.883C838.671 93.015 838.812 93.2161 838.869 93.4469C838.903 93.6016 838.896 93.7623 838.85 93.9138L834.109 110.749L831.824 119.237C831.704 119.619 831.464 119.951 831.139 120.186C830.815 120.42 830.424 120.544 830.023 120.538Z" stroke="#EC3750" stroke-width="2.5" stroke-linecap="round" stroke-linejoin="round"/>
</g>
<path d="M367.883 174.501L358.124 183.96M358.124 183.96L367.583 193.719M358.124 183.96L377.342 184.261M367.357 208.132C354.09 207.925 343.503 197.001 343.711 183.734C343.919 170.467 354.842 159.88 368.109 160.088C381.376 160.296 391.963 171.219 391.755 184.486C391.547 197.753 380.624 208.34 367.357 208.132Z" stroke="#252429" stroke-width="2.5" stroke-linecap="round" stroke-linejoin="round"/>
<path d="M427.047 40.5286L417.481 30.8744M417.481 30.8744L407.827 40.44M417.481 30.8744L417.393 50.0942M393.412 40.3735C393.473 27.105 404.279 16.3984 417.548 16.4596C430.816 16.5207 441.523 27.3266 441.462 40.595C441.4 53.8635 430.595 64.5702 417.326 64.509C404.058 64.4478 393.351 53.642 393.412 40.3735Z" stroke="#EC3750" stroke-width="2.5" stroke-linecap="round" stroke-linejoin="round"/>
<path d="M461.844 87.2759L471.321 77.5346M471.321 77.5346L461.58 68.0577M471.321 77.5346L452.103 77.799M461.381 53.6441C474.649 53.4616 485.552 64.0689 485.735 77.3363C485.917 90.6036 475.31 101.507 462.042 101.689C448.775 101.872 437.872 91.2647 437.689 77.9973C437.507 64.73 448.114 53.8267 461.381 53.6441Z" stroke="#EC3750" stroke-width="2.5" stroke-linecap="round" stroke-linejoin="round"/>
<path d="M409.5 210.723L419.225 220.216M419.225 220.216L428.718 210.49M419.225 220.216L418.993 200.997M443.132 210.316C443.293 223.583 432.667 234.469 419.4 234.63C406.132 234.79 395.246 224.165 395.086 210.897C394.925 197.629 405.551 186.744 418.818 186.583C432.086 186.423 442.972 197.048 443.132 210.316Z" stroke="#252429" stroke-width="2.5" stroke-linecap="round" stroke-linejoin="round"/>
<g clip-path="url(#clip2_266_81)">
<path d="M300.626 77.7452C304.009 77.1934 306.304 74.0038 305.752 70.621C305.201 67.2382 302.011 64.9432 298.628 65.4949C295.245 66.0466 292.95 69.2362 293.502 72.619C294.054 76.0018 297.243 78.2969 300.626 77.7452Z" stroke="#EC3750" stroke-width="2" stroke-linecap="round" stroke-linejoin="round"/>
<path d="M315.735 75.281C315.563 75.9411 315.594 76.6374 315.822 77.2802C316.05 77.9229 316.465 78.4826 317.015 78.887L317.157 78.9895C317.599 79.3068 317.973 79.7081 318.26 80.1703C318.546 80.6325 318.738 81.1466 318.826 81.6832C318.913 82.2198 318.894 82.7684 318.77 83.2977C318.645 83.8269 318.417 84.3264 318.099 84.7675C317.782 85.2091 317.381 85.5837 316.919 85.87C316.457 86.1564 315.942 86.3488 315.406 86.4363C314.869 86.5239 314.321 86.5048 313.791 86.3801C313.262 86.2555 312.763 86.0277 312.321 85.7099L312.179 85.6074C311.621 85.2152 310.958 84.9991 310.276 84.9871C309.595 84.975 308.925 85.1675 308.353 85.5397C307.791 85.897 307.347 86.4107 307.073 87.0177C306.8 87.6246 306.71 88.2983 306.814 88.9557L306.871 89.3028C307.048 90.3858 306.787 91.4946 306.146 92.3852C305.505 93.2759 304.536 93.8755 303.453 94.0522C302.37 94.2288 301.262 93.968 300.371 93.3271C299.48 92.6862 298.881 91.7178 298.704 90.6348L298.674 90.451C298.548 89.7778 298.222 89.1581 297.739 88.6724C297.257 88.1867 296.639 87.8575 295.966 87.7277C295.306 87.5563 294.61 87.5867 293.967 87.8148C293.324 88.0429 292.765 88.4583 292.36 89.0075L292.258 89.15C291.94 89.5915 291.539 89.9661 291.077 90.2525C290.615 90.5388 290.101 90.7313 289.564 90.8188C289.027 90.9063 288.479 90.8872 287.95 90.7625C287.42 90.6379 286.921 90.4102 286.48 90.0924C286.038 89.775 285.663 89.3738 285.377 88.9116C285.091 88.4494 284.898 87.9353 284.811 87.3987C284.723 86.862 284.742 86.3134 284.867 85.7842C284.992 85.255 285.219 84.7555 285.537 84.3143L285.64 84.1718C286.032 83.6139 286.248 82.9512 286.26 82.2693C286.272 81.5874 286.08 80.9175 285.707 80.346C285.35 79.7844 284.836 79.3394 284.229 79.066C283.623 78.7926 282.949 78.7026 282.291 78.8072L281.944 78.8638C280.861 79.0404 279.753 78.7796 278.862 78.1387C277.971 77.4978 277.372 76.5293 277.195 75.4463C277.018 74.3634 277.279 73.2546 277.92 72.3639C278.561 71.4732 279.529 70.8736 280.612 70.6969L280.796 70.667C281.469 70.5409 282.089 70.2153 282.575 69.7324C283.06 69.2494 283.39 68.6316 283.52 67.9591C283.691 67.299 283.661 66.6026 283.432 65.9599C283.204 65.3172 282.789 64.7575 282.24 64.3531L282.097 64.2505C281.656 63.9332 281.281 63.532 280.995 63.0698C280.708 62.6076 280.516 62.0935 280.428 61.5569C280.341 61.0202 280.36 60.4716 280.485 59.9424C280.609 59.4132 280.837 58.9137 281.155 58.4725C281.472 58.031 281.873 57.6564 282.336 57.37C282.798 57.0837 283.312 56.8912 283.849 56.8037C284.385 56.7162 284.934 56.7353 285.463 56.8599C285.992 56.9846 286.492 57.2123 286.933 57.5301L287.075 57.6327C287.633 58.0249 288.296 58.2409 288.978 58.253C289.66 58.2651 290.33 58.0726 290.901 57.7004L291.064 57.6737C291.626 57.3164 292.071 56.8027 292.344 56.1957C292.618 55.5888 292.708 54.9152 292.603 54.2577L292.547 53.9107C292.37 52.8277 292.631 51.7189 293.272 50.8282C293.913 49.9375 294.881 49.3379 295.964 49.1612C297.047 48.9846 298.156 49.2454 299.047 49.8863C299.937 50.5272 300.537 51.4957 300.714 52.5787L300.744 52.7624C300.853 53.419 301.153 54.0291 301.605 54.5177C302.057 55.0063 302.642 55.3521 303.288 55.5124C303.948 55.6837 304.645 55.6534 305.287 55.4253C305.93 55.1972 306.49 54.7817 306.894 54.2326L306.997 54.0901C307.314 53.6486 307.715 53.2739 308.177 52.9876C308.64 52.7012 309.154 52.5088 309.69 52.4213C310.227 52.3338 310.776 52.3529 311.305 52.4775C311.834 52.6022 312.333 52.8299 312.775 53.1477C313.216 53.465 313.591 53.8663 313.877 54.3285C314.164 54.7907 314.356 55.3048 314.443 55.8414C314.531 56.378 314.512 56.9266 314.387 57.4559C314.263 57.9851 314.035 58.4846 313.717 58.9257L313.615 59.0682C313.222 59.6262 313.006 60.2888 312.994 60.9707C312.982 61.6526 313.175 62.3225 313.547 62.894L313.573 63.0574C313.931 63.619 314.445 64.0639 315.051 64.3374C315.658 64.6108 316.332 64.7008 316.989 64.5962L317.337 64.5396C318.42 64.363 319.528 64.6238 320.419 65.2647C321.31 65.9056 321.909 66.8741 322.086 67.957C322.263 69.04 322.002 70.1488 321.361 71.0395C320.72 71.9302 319.752 72.5298 318.669 72.7065L318.485 72.7364C317.828 72.8462 317.218 73.1456 316.729 73.5977C316.241 74.0498 315.895 74.6349 315.735 75.281Z" stroke="#EC3750" stroke-width="2" stroke-linecap="round" stroke-linejoin="round"/>
</g>
<path d="M249.666 73.8448C253.042 74.5587 256.358 72.4003 257.072 69.0239C257.786 65.6475 255.628 62.3316 252.251 61.6177C248.875 60.9037 245.559 63.0621 244.845 66.4385C244.131 69.815 246.29 73.1309 249.666 73.8448ZM249.666 73.8448L243.633 102.375M243.633 102.375C238.229 101.232 233.499 97.9889 230.486 93.3591C227.472 88.7293 226.421 83.092 227.564 77.6873L233.677 78.9799M243.633 102.375C249.038 103.518 254.676 102.467 259.305 99.4529C263.935 96.4393 267.178 91.7099 268.321 86.3051L262.207 85.0125" stroke="#EC3750" stroke-width="2.5" stroke-linecap="round" stroke-linejoin="round"/>
<path d="M643.257 197.74C638.846 200.182 633.71 201.018 628.741 200.101C623.772 199.185 619.286 196.574 616.061 192.723M648.893 205.801C642.321 209.683 634.543 211.059 627.018 209.671C619.493 208.283 612.739 204.226 608.022 198.261M637.721 189.678C635.5 190.695 633.014 191.003 630.609 190.559C628.204 190.115 625.997 188.942 624.296 187.202M632.419 181.007L632.4 181.004" stroke="#1E1E1E" stroke-width="2.5" stroke-linecap="round" stroke-linejoin="round"/>
<defs>
<clipPath id="clip0_266_81">
<rect width="52.6442" height="52.6442" fill="white" transform="translate(95.3457 59.0818) rotate(25.675)"/>
</clipPath>
<clipPath id="clip1_266_81">
<rect width="53.158" height="53.158" fill="white" transform="translate(805.997 66.1744) rotate(33.7281)"/>
</clipPath>
<clipPath id="clip2_266_81">
<rect width="49.6485" height="49.6485" fill="white" transform="translate(271.131 51.1155) rotate(-9.26326)"/>
</clipPath>
</defs>
</svg>
