<svg width="653" height="135" viewBox="0 0 653 135" fill="none" xmlns="http://www.w3.org/2000/svg">
<path d="M649.06 93.9385L648.484 97.0537C647.506 102.34 647.948 106.815 651.156 111.118C651.635 111.695 652.404 112.813 652.212 113.851C652.107 114.418 651.719 114.932 650.971 115.282C650.936 115.471 640.352 120.445 640.352 120.445C639.268 121.026 638.272 121.134 637.422 120.977C635.723 120.663 621.544 112.867 624.651 96.0642L625.244 92.8546C627.077 82.9426 623.03 77.8989 616.209 76.2472L608.08 110.183C607.905 111.127 606.898 111.819 605.954 111.645L605.766 111.61L587.06 107.175C585.945 106.871 585.347 105.882 585.556 104.749L597.181 56.1325C597.467 55.1116 598.474 54.419 599.418 54.5936L599.607 54.6285L610.075 57.1497C613.896 57.0752 617.458 57.3433 620.857 57.9716C640.02 61.5147 652.393 75.9081 649.06 93.9385Z" fill="#EC3750"/>
<path d="M583.852 88.2446C583.852 106.965 564.844 117.429 551.212 117.429C535.564 117.429 521.836 106.101 521.836 89.2046C521.836 69.4286 536.62 59.1566 553.516 59.1566C574.732 59.1566 583.852 75.7646 583.852 88.2446ZM553.516 99.0926C560.332 99.0926 563.404 93.5246 563.404 88.0526C563.404 86.2286 563.02 76.9166 553.228 76.9166C545.164 76.9166 542.86 83.7326 542.86 88.0526C542.86 94.6766 548.044 99.0926 553.516 99.0926Z" fill="#EC3750"/>
<path d="M518.896 111.94L508.061 116.616C506.808 117.154 505.806 117.166 504.975 116.927C504.606 116.821 488.44 108.776 493.825 90.0473C497.035 78.8836 493.009 73.4307 486.366 71.5207L485.905 71.388L476.275 104.879C475.957 105.986 474.888 106.578 473.873 106.286L455.42 100.98C454.313 100.662 453.722 99.5929 454.04 98.4857L475.74 23.0156C476.032 22.0007 477.128 21.3168 478.235 21.6352L496.687 26.9408C497.702 27.2326 498.267 28.394 497.975 29.4089L491.078 53.397C492.212 53.6231 493.319 53.9414 494.334 54.2332C511.679 59.2206 522.547 73.5331 517.571 91.8806C515.939 97.9041 515.812 102.862 519.298 107.76C519.719 108.381 520.469 109.595 520.177 110.61C520.044 111.071 519.701 111.572 518.896 111.94Z" fill="#EC3750"/>
<path d="M445.951 94.5554L437.233 104.314C435.904 105.781 434.771 106.4 433.412 105.923C433.141 105.828 432.869 105.733 432.629 105.547C419.064 97.5274 416.79 87.7754 424.384 64.7001L417.718 61.9523C416.753 61.5119 416.256 60.3199 416.606 59.3235L422.973 44.6692C423.413 43.7046 424.515 43.1757 425.602 43.5573L431.271 45.9552C432.661 42.5768 434.146 38.9267 435.786 35.1273C436.258 34.0722 437.043 32.4148 439.398 33.2417L439.761 33.369L456.594 40.1954C458.102 40.8266 458.508 41.9869 457.968 43.5267C456.451 47.2674 454.78 51.1574 453.172 54.8663L459.295 57.4232C460.291 57.773 460.788 58.965 460.406 60.052L454.04 74.7063C453.631 75.5803 452.62 76.141 451.624 75.7912L451.443 75.7276L445.56 73.3567C442.666 81.5993 441.558 88.2309 444.939 91.3513C445.777 92.154 446.736 92.898 446.387 93.8944C446.323 94.0755 446.137 94.3155 445.951 94.5554Z" fill="#EC3750"/>
<path d="M422.462 105.119L416.51 116.735C415.646 118.367 414.686 119.231 413.438 119.231C412.478 119.231 405.758 117.695 400.958 113.183C395.966 115.775 390.782 116.927 385.886 116.927C369.854 116.927 356.03 104.639 356.03 89.1832C356.03 77.6632 364.19 61.0552 383.198 61.0552C387.998 61.0552 392.702 62.1112 396.446 63.7432C397.022 63.0712 397.886 62.7832 399.038 62.7832H399.518L416.126 64.2232C418.622 64.4152 419.294 65.6632 419.294 66.8152V67.2952C417.95 76.0312 416.606 84.3832 416.606 90.7192C416.606 96.4792 417.662 100.607 420.734 102.239C421.694 102.719 422.75 103.295 422.75 104.255C422.75 104.447 422.654 104.735 422.462 105.119ZM394.334 98.1112C394.046 95.6152 393.854 92.9272 393.854 89.9512C393.854 87.4552 393.95 84.8632 394.142 81.9832C392.99 80.0632 390.398 78.7192 387.614 78.7192C381.566 78.7192 378.206 84.5752 378.206 89.4712C378.206 94.8472 381.95 99.4552 388.19 99.4552C390.014 99.4552 392.126 99.0712 394.334 98.1112Z" fill="#EC3750"/>
<path d="M325.014 105.43L315.598 103.117C313.734 102.659 312.147 101.874 311.557 99.8503L300.146 54.145C299.909 53.0982 299.905 52.3066 300.066 51.654C300.318 50.6285 301.037 50.1133 302.177 49.899C304.667 49.4231 318.116 47.3886 320.074 47.8695C321.472 48.213 322.244 49.0946 322.482 50.1414L327.267 75.7337C327.339 76.2456 327.573 76.5008 327.759 76.5466C328.039 76.6153 328.271 76.4746 328.688 75.9839C333.806 69.2339 342.3 56.7888 343.342 55.3642C344.199 54.2896 345.269 53.9592 346.481 54.2569C347.133 54.4172 347.763 54.6707 348.44 55.1336L359.994 62.0246C361.978 63.2039 362.588 64.3423 362.267 65.6475C361.901 67.1391 343.448 97.996 329.553 105.062C328.438 105.578 326.692 105.842 325.014 105.43Z" fill="#EC3750"/>
<path d="M301.46 99.4206L295.508 111.037C294.644 112.669 293.684 113.533 292.436 113.533C291.476 113.533 284.756 111.997 279.956 107.485C274.964 110.077 269.78 111.229 264.884 111.229C248.852 111.229 235.028 98.9406 235.028 83.4846C235.028 71.9646 243.188 55.3566 262.196 55.3566C266.996 55.3566 271.7 56.4126 275.444 58.0446C276.02 57.3726 276.884 57.0846 278.036 57.0846H278.516L295.124 58.5246C297.62 58.7166 298.292 59.9646 298.292 61.1166V61.5966C296.948 70.3326 295.604 78.6846 295.604 85.0206C295.604 90.7806 296.66 94.9086 299.732 96.5406C300.692 97.0206 301.748 97.5966 301.748 98.5566C301.748 98.7486 301.652 99.0366 301.46 99.4206ZM273.332 92.4126C273.044 89.9166 272.852 87.2286 272.852 84.2526C272.852 81.7566 272.948 79.1646 273.14 76.2846C271.988 74.3646 269.396 73.0206 266.612 73.0206C260.564 73.0206 257.204 78.8766 257.204 83.7726C257.204 89.1486 260.948 93.7566 267.188 93.7566C269.012 93.7566 271.124 93.3726 273.332 92.4126Z" fill="#EC3750"/>
<path d="M212.916 99.9566H211.764C189.972 99.9566 179.028 85.0766 179.028 70.4846C179.028 56.7566 188.724 42.3566 210.612 42.3566C234.42 42.3566 235.476 63.5726 235.476 66.7406C235.476 71.1566 233.652 74.8046 227.988 76.7246C223.476 78.2606 216.372 79.3166 211.38 79.5086C209.844 79.5086 209.364 78.8366 208.98 77.6846C207.828 74.5166 206.004 68.2766 206.004 67.8926C206.004 66.8366 206.772 66.3566 208.02 66.0686C213.012 64.9166 213.684 64.7246 213.684 63.3806C213.684 62.5166 211.86 59.4446 207.828 59.4446C203.22 59.4446 199.38 63.4766 199.38 69.4286C199.38 76.2446 204.372 83.9246 216.372 83.9246C217.044 83.9246 217.812 83.9246 218.484 83.8286H218.676C220.02 83.8286 221.652 84.6926 221.652 86.3246C221.652 87.2846 219.156 93.8126 217.716 97.0766C216.948 98.6126 215.7 99.9566 212.916 99.9566Z" fill="#EC3750"/>
<path d="M178.737 61.3527L174.225 72.9687C173.841 74.1207 172.785 75.0807 171.633 75.0807C171.249 75.0807 170.769 74.8887 170.385 74.6007C168.657 73.1607 165.297 72.1047 161.937 72.1047C159.441 72.1047 151.089 72.6807 151.089 83.1447C151.089 89.5767 155.697 93.8007 161.937 93.8007C166.065 93.8007 170.865 91.9767 175.473 87.7527C176.049 87.1767 176.913 86.6967 177.777 86.6967C178.449 86.6967 179.217 87.0807 179.889 88.2327C181.617 91.4967 182.769 93.2247 184.305 96.3927C184.593 96.9687 184.785 97.6407 184.785 98.3127C184.785 99.4647 184.305 100.521 183.153 101.673C175.377 109.065 166.161 112.329 157.521 112.329C141.585 112.329 127.473 101.193 127.473 84.2967C127.473 62.7927 144.657 54.0567 160.497 54.0567C171.153 54.0567 178.833 58.2807 178.833 60.6807C178.833 60.8727 178.833 61.1607 178.737 61.3527Z" fill="#EC3750"/>
<path d="M111.147 103.497L93.6553 96.4823C88.8287 96.3741 84.3079 95.6598 80.3054 94.3098C67.6613 90.0451 60.2302 79.6362 65.1183 62.4406C66.8397 56.4358 70.4622 45.0948 72.3349 39.2423C73.5928 35.5127 75.1118 35.2146 76.2341 35.4918C76.3864 35.3405 90.8235 39.0955 92.3699 39.6171C94.1892 40.2307 94.6101 41.3859 94.3329 42.5081C92.823 48.7869 91.3481 53.7603 88.2428 64.7693C85.9681 72.715 87.7766 76.3644 91.5971 77.653C93.4164 78.2667 95.8144 78.3662 98.4567 78.0417L110.648 47.302C111.108 46.2411 112.263 45.8202 113.263 46.1577L131.028 53.2639C132.119 53.6321 132.54 54.7872 132.172 55.8788L113.762 102.352C113.303 103.413 112.148 103.834 111.147 103.497Z" fill="#EC3750"/>
<path d="M25.9044 109.267L18.8651 96.3116C18.7196 96.1538 18.6397 95.8771 18.5864 95.6927C18.1868 94.3092 19.4371 93.4485 19.9905 93.2887L20.3594 93.1821C26.6311 91.3707 32.4971 86.0792 30.8189 80.2687C29.9399 77.2251 27.4806 74.9377 20.2626 68.6288C14.8296 64.0027 11.6777 59.3173 10.3725 54.798C6.16365 40.2256 20.3943 27.2223 35.889 22.7471C39.486 21.7082 41.4371 21.5444 42.5499 23.3214L49.7204 36.0391C49.8925 36.2892 49.9725 36.5659 50.0257 36.7504C50.4519 38.226 49.2283 39.179 48.6749 39.3388L48.1215 39.4986C42.1266 41.2301 37.1398 45.0686 38.6582 50.3257C39.5639 53.4615 43.1216 57.1304 49.0957 61.9C54.6209 66.4995 57.7728 71.1849 59.1047 75.7964C63.5266 91.1066 47.7833 105.446 31.8275 110.055C30.9052 110.321 30.0751 110.561 29.1262 110.735C27.9272 111.081 26.5274 110.386 25.9044 109.267Z" fill="#EC3750"/>
<mask id="mask0_178_175" style="mask-type:alpha" maskUnits="userSpaceOnUse" x="9" y="21" width="644" height="101">
<path d="M649.06 93.9385L648.484 97.0537C647.506 102.34 647.948 106.815 651.156 111.118C651.635 111.695 652.404 112.813 652.212 113.851C652.107 114.418 651.719 114.932 650.971 115.282C650.936 115.471 640.352 120.445 640.352 120.445C639.268 121.026 638.272 121.134 637.422 120.977C635.723 120.663 621.544 112.867 624.651 96.0642L625.244 92.8546C627.077 82.9426 623.03 77.8989 616.209 76.2472L608.08 110.183C607.905 111.127 606.898 111.819 605.954 111.645L605.766 111.61L587.06 107.175C585.945 106.871 585.347 105.882 585.556 104.749L597.181 56.1325C597.467 55.1116 598.474 54.419 599.418 54.5936L599.607 54.6285L610.075 57.1497C613.896 57.0752 617.458 57.3433 620.857 57.9716C640.02 61.5147 652.393 75.9081 649.06 93.9385Z" fill="#EC3750"/>
<path d="M583.852 88.2446C583.852 106.965 564.844 117.429 551.212 117.429C535.564 117.429 521.836 106.101 521.836 89.2046C521.836 69.4286 536.62 59.1566 553.516 59.1566C574.732 59.1566 583.852 75.7646 583.852 88.2446ZM553.516 99.0926C560.332 99.0926 563.404 93.5246 563.404 88.0526C563.404 86.2286 563.02 76.9166 553.228 76.9166C545.164 76.9166 542.86 83.7326 542.86 88.0526C542.86 94.6766 548.044 99.0926 553.516 99.0926Z" fill="#EC3750"/>
<path d="M518.896 111.94L508.061 116.616C506.808 117.154 505.806 117.166 504.975 116.927C504.606 116.821 488.44 108.776 493.825 90.0473C497.035 78.8836 493.009 73.4307 486.366 71.5207L485.905 71.388L476.275 104.879C475.957 105.986 474.888 106.578 473.873 106.286L455.42 100.98C454.313 100.662 453.722 99.5929 454.04 98.4857L475.74 23.0156C476.032 22.0007 477.128 21.3168 478.235 21.6352L496.687 26.9408C497.702 27.2326 498.267 28.394 497.975 29.4089L491.078 53.397C492.212 53.6231 493.319 53.9414 494.334 54.2332C511.679 59.2206 522.547 73.5331 517.571 91.8806C515.939 97.9041 515.812 102.862 519.298 107.76C519.719 108.381 520.469 109.595 520.177 110.61C520.044 111.071 519.701 111.572 518.896 111.94Z" fill="#EC3750"/>
<path d="M445.951 94.5554L437.233 104.314C435.904 105.781 434.771 106.4 433.412 105.923C433.141 105.828 432.869 105.733 432.629 105.547C419.064 97.5274 416.79 87.7754 424.384 64.7001L417.718 61.9523C416.753 61.5119 416.256 60.3199 416.606 59.3235L422.973 44.6692C423.413 43.7046 424.515 43.1757 425.602 43.5573L431.271 45.9552C432.661 42.5768 434.146 38.9267 435.786 35.1273C436.258 34.0722 437.043 32.4148 439.398 33.2417L439.761 33.369L456.594 40.1954C458.102 40.8266 458.508 41.9869 457.968 43.5267C456.451 47.2674 454.78 51.1574 453.172 54.8663L459.295 57.4232C460.291 57.773 460.788 58.965 460.406 60.052L454.04 74.7063C453.631 75.5803 452.62 76.141 451.624 75.7912L451.443 75.7276L445.56 73.3567C442.666 81.5993 441.558 88.2309 444.939 91.3513C445.777 92.154 446.736 92.898 446.387 93.8944C446.323 94.0755 446.137 94.3155 445.951 94.5554Z" fill="#EC3750"/>
<path d="M422.462 105.119L416.51 116.735C415.646 118.367 414.686 119.231 413.438 119.231C412.478 119.231 405.758 117.695 400.958 113.183C395.966 115.775 390.782 116.927 385.886 116.927C369.854 116.927 356.03 104.639 356.03 89.1832C356.03 77.6632 364.19 61.0552 383.198 61.0552C387.998 61.0552 392.702 62.1112 396.446 63.7432C397.022 63.0712 397.886 62.7832 399.038 62.7832H399.518L416.126 64.2232C418.622 64.4152 419.294 65.6632 419.294 66.8152V67.2952C417.95 76.0312 416.606 84.3832 416.606 90.7192C416.606 96.4792 417.662 100.607 420.734 102.239C421.694 102.719 422.75 103.295 422.75 104.255C422.75 104.447 422.654 104.735 422.462 105.119ZM394.334 98.1112C394.046 95.6152 393.854 92.9272 393.854 89.9512C393.854 87.4552 393.95 84.8632 394.142 81.9832C392.99 80.0632 390.398 78.7192 387.614 78.7192C381.566 78.7192 378.206 84.5752 378.206 89.4712C378.206 94.8472 381.95 99.4552 388.19 99.4552C390.014 99.4552 392.126 99.0712 394.334 98.1112Z" fill="#EC3750"/>
<path d="M325.014 105.43L315.598 103.117C313.734 102.659 312.147 101.874 311.557 99.8503L300.146 54.145C299.909 53.0982 299.905 52.3066 300.066 51.654C300.318 50.6285 301.037 50.1133 302.177 49.899C304.667 49.4231 318.116 47.3886 320.074 47.8695C321.472 48.213 322.244 49.0946 322.482 50.1414L327.267 75.7337C327.339 76.2456 327.573 76.5008 327.759 76.5466C328.039 76.6153 328.271 76.4746 328.688 75.9839C333.806 69.2339 342.3 56.7888 343.342 55.3642C344.199 54.2896 345.269 53.9592 346.481 54.2569C347.133 54.4172 347.763 54.6707 348.44 55.1336L359.994 62.0246C361.978 63.2039 362.588 64.3423 362.267 65.6475C361.901 67.1391 343.448 97.996 329.553 105.062C328.438 105.578 326.692 105.842 325.014 105.43Z" fill="#EC3750"/>
<path d="M301.46 99.4206L295.508 111.037C294.644 112.669 293.684 113.533 292.436 113.533C291.476 113.533 284.756 111.997 279.956 107.485C274.964 110.077 269.78 111.229 264.884 111.229C248.852 111.229 235.028 98.9406 235.028 83.4846C235.028 71.9646 243.188 55.3566 262.196 55.3566C266.996 55.3566 271.7 56.4126 275.444 58.0446C276.02 57.3726 276.884 57.0846 278.036 57.0846H278.516L295.124 58.5246C297.62 58.7166 298.292 59.9646 298.292 61.1166V61.5966C296.948 70.3326 295.604 78.6846 295.604 85.0206C295.604 90.7806 296.66 94.9086 299.732 96.5406C300.692 97.0206 301.748 97.5966 301.748 98.5566C301.748 98.7486 301.652 99.0366 301.46 99.4206ZM273.332 92.4126C273.044 89.9166 272.852 87.2286 272.852 84.2526C272.852 81.7566 272.948 79.1646 273.14 76.2846C271.988 74.3646 269.396 73.0206 266.612 73.0206C260.564 73.0206 257.204 78.8766 257.204 83.7726C257.204 89.1486 260.948 93.7566 267.188 93.7566C269.012 93.7566 271.124 93.3726 273.332 92.4126Z" fill="#EC3750"/>
<path d="M212.916 99.9566H211.764C189.972 99.9566 179.028 85.0766 179.028 70.4846C179.028 56.7566 188.724 42.3566 210.612 42.3566C234.42 42.3566 235.476 63.5726 235.476 66.7406C235.476 71.1566 233.652 74.8046 227.988 76.7246C223.476 78.2606 216.372 79.3166 211.38 79.5086C209.844 79.5086 209.364 78.8366 208.98 77.6846C207.828 74.5166 206.004 68.2766 206.004 67.8926C206.004 66.8366 206.772 66.3566 208.02 66.0686C213.012 64.9166 213.684 64.7246 213.684 63.3806C213.684 62.5166 211.86 59.4446 207.828 59.4446C203.22 59.4446 199.38 63.4766 199.38 69.4286C199.38 76.2446 204.372 83.9246 216.372 83.9246C217.044 83.9246 217.812 83.9246 218.484 83.8286H218.676C220.02 83.8286 221.652 84.6926 221.652 86.3246C221.652 87.2846 219.156 93.8126 217.716 97.0766C216.948 98.6126 215.7 99.9566 212.916 99.9566Z" fill="#EC3750"/>
<path d="M178.737 61.3527L174.225 72.9687C173.841 74.1207 172.785 75.0807 171.633 75.0807C171.249 75.0807 170.769 74.8887 170.385 74.6007C168.657 73.1607 165.297 72.1047 161.937 72.1047C159.441 72.1047 151.089 72.6807 151.089 83.1447C151.089 89.5767 155.697 93.8007 161.937 93.8007C166.065 93.8007 170.865 91.9767 175.473 87.7527C176.049 87.1767 176.913 86.6967 177.777 86.6967C178.449 86.6967 179.217 87.0807 179.889 88.2327C181.617 91.4967 182.769 93.2247 184.305 96.3927C184.593 96.9687 184.785 97.6407 184.785 98.3127C184.785 99.4647 184.305 100.521 183.153 101.673C175.377 109.065 166.161 112.329 157.521 112.329C141.585 112.329 127.473 101.193 127.473 84.2967C127.473 62.7927 144.657 54.0567 160.497 54.0567C171.153 54.0567 178.833 58.2807 178.833 60.6807C178.833 60.8727 178.833 61.1607 178.737 61.3527Z" fill="#EC3750"/>
<path d="M111.147 103.497L93.6553 96.4823C88.8287 96.3741 84.3079 95.6598 80.3054 94.3098C67.6613 90.0451 60.2302 79.6362 65.1183 62.4406C66.8397 56.4358 70.4622 45.0948 72.3349 39.2423C73.5928 35.5127 75.1118 35.2146 76.2341 35.4918C76.3864 35.3405 90.8235 39.0955 92.3699 39.6171C94.1892 40.2307 94.6101 41.3859 94.3329 42.5081C92.823 48.7869 91.3481 53.7603 88.2428 64.7693C85.9681 72.715 87.7766 76.3644 91.5971 77.653C93.4164 78.2667 95.8144 78.3662 98.4567 78.0417L110.648 47.302C111.108 46.2411 112.263 45.8202 113.263 46.1577L131.028 53.2639C132.119 53.6321 132.54 54.7872 132.172 55.8788L113.762 102.352C113.303 103.413 112.148 103.834 111.147 103.497Z" fill="#EC3750"/>
<path d="M25.9044 109.267L18.8651 96.3116C18.7196 96.1538 18.6397 95.8771 18.5864 95.6927C18.1868 94.3092 19.4371 93.4485 19.9905 93.2887L20.3594 93.1821C26.6311 91.3707 32.4971 86.0792 30.8189 80.2687C29.9399 77.2251 27.4806 74.9377 20.2626 68.6288C14.8296 64.0027 11.6777 59.3173 10.3725 54.798C6.16365 40.2256 20.3943 27.2223 35.889 22.7471C39.486 21.7082 41.4371 21.5444 42.5499 23.3214L49.7204 36.0391C49.8925 36.2892 49.9725 36.5659 50.0257 36.7504C50.4519 38.226 49.2283 39.179 48.6749 39.3388L48.1215 39.4986C42.1266 41.2301 37.1398 45.0686 38.6582 50.3257C39.5639 53.4615 43.1216 57.1304 49.0957 61.9C54.6209 66.4995 57.7728 71.1849 59.1047 75.7964C63.5266 91.1066 47.7833 105.446 31.8275 110.055C30.9052 110.321 30.0751 110.561 29.1262 110.735C27.9272 111.081 26.5274 110.386 25.9044 109.267Z" fill="#EC3750"/>
</mask>
<g mask="url(#mask0_178_175)">
<path d="M79.7541 91.3285L57.2724 84.584C46.9929 81.5001 35.85 83.9048 27.7571 90.9535C7.99881 108.162 16.9059 140.584 42.6829 145.283L512.397 230.908C538.883 235.736 566.115 227.181 584.002 207.06C618.713 168.011 667.854 106.63 633.758 106.63C616.538 106.63 602.52 104.376 591.541 101.421C570.586 95.7802 548.603 88.8829 527.016 91.1083L474.645 96.5075C467.594 97.2343 460.505 95.5594 454.525 91.7541L439.889 82.44C429.752 75.9892 416.256 80.9455 412.703 92.4236C409.519 102.711 398.154 108.007 388.229 103.828L353.767 89.3177C339.22 83.1925 322.68 83.9921 308.791 91.4919L304.596 93.7575C289.397 101.965 271.465 103.466 255.113 97.8993L209.352 82.3214C194.603 77.3004 178.719 76.6397 163.604 80.4185L134.758 87.6298L121.796 91.4422C108.067 95.48 93.461 95.4406 79.7541 91.3285Z" fill="#252429"/>
<path opacity="0.5" d="M89.7541 84.3285L67.2724 77.584C56.9929 74.5001 45.85 76.9048 37.7571 83.9535C17.9988 101.162 26.9059 133.584 52.6829 138.283L522.397 223.908C548.883 228.736 576.115 220.181 594.002 200.06C628.713 161.011 677.854 99.6298 643.758 99.6298C626.538 99.6298 612.52 97.3759 601.541 94.4208C580.586 88.7802 558.603 81.8829 537.016 84.1083L484.645 89.5075C477.594 90.2343 470.505 88.5594 464.525 84.7541L449.889 75.44C439.752 68.9892 426.256 73.9455 422.703 85.4236C419.519 95.7113 408.154 101.007 398.229 96.8278L363.767 82.3177C349.22 76.1925 332.68 76.9921 318.791 84.4919L314.596 86.7575C299.397 94.965 281.465 96.466 265.113 90.8993L219.352 75.3214C204.603 70.3004 188.719 69.6397 173.604 73.4185L144.758 80.6298L131.796 84.4422C118.067 88.48 103.461 88.4406 89.7541 84.3285Z" fill="#252429"/>
<path opacity="0.25" d="M86.7541 75.3285L64.2724 68.584C53.9929 65.5001 42.85 67.9048 34.7571 74.9535C14.9988 92.1623 23.9059 124.584 49.6829 129.283L519.397 214.908C545.883 219.736 573.115 211.181 591.002 191.06C625.713 152.011 674.854 90.6298 640.758 90.6298C623.538 90.6298 609.52 88.3759 598.541 85.4208C577.586 79.7802 555.603 72.8829 534.016 75.1083L481.645 80.5075C474.594 81.2343 467.505 79.5594 461.525 75.7541L446.889 66.44C436.752 59.9892 423.256 64.9455 419.703 76.4236C416.519 86.7113 405.154 92.0069 395.229 87.8278L360.767 73.3177C346.22 67.1925 329.68 67.9921 315.791 75.4919L311.596 77.7575C296.397 85.965 278.465 87.466 262.113 81.8993L216.352 66.3214C201.603 61.3004 185.719 60.6397 170.604 64.4185L141.758 71.6298L128.796 75.4422C115.067 79.48 100.461 79.4406 86.7541 75.3285Z" fill="#252429"/>
</g>
<g clip-path="url(#clip0_178_175)">
<path d="M446.121 113.979L449.872 106.368L442.261 102.616M454.339 113.3L461.914 110.727" stroke="#252429" stroke-width="1.25" stroke-linecap="round" stroke-linejoin="round"/>
</g>
<g clip-path="url(#clip1_178_175)">
<path d="M18.1829 25.1206C14.7407 29.0451 12.6183 25.6547 10.6577 26.2921M25.708 23.9491L23.6545 20.6688C23.4333 20.2447 23.1243 19.8726 22.7481 19.5772C22.372 19.2817 21.9372 19.0698 21.4728 18.9553C23.9486 16.9925 26.1143 14.2328 23.2171 9.60487C22.476 8.42159 21.3084 7.56854 19.9558 7.22226C19.6941 5.94503 18.9503 4.81772 17.8791 4.07453C17.8791 4.07453 16.6932 4.404 15.3503 7.40372C13.0779 8.09338 11.0301 9.37537 9.41701 11.1181C6.132 11.0155 5.31753 11.9383 5.31753 11.9383C5.51805 13.2266 6.20715 14.3881 7.24169 15.1816C6.96016 16.5597 7.22335 17.9932 7.97602 19.1815C10.852 23.7755 14.2805 23.0331 17.149 21.6975C17.0505 22.1603 17.0506 22.6386 17.1492 23.1013C17.2478 23.564 17.4427 24.0007 17.7212 24.3831L19.7747 27.6634" stroke="#EC3750" stroke-width="2" stroke-linecap="round" stroke-linejoin="round"/>
</g>
<g clip-path="url(#clip2_178_175)">
<path d="M194.473 35.0567C196.129 35.0567 197.473 33.7136 197.473 32.0567C197.473 30.3998 196.129 29.0567 194.473 29.0567C192.816 29.0567 191.473 30.3998 191.473 32.0567C191.473 33.7136 192.816 35.0567 194.473 35.0567Z" stroke="#EC3750" stroke-width="2" stroke-linecap="round" stroke-linejoin="round"/>
<path d="M201.873 35.0567C201.739 35.3583 201.7 35.6929 201.759 36.0173C201.817 36.3417 201.972 36.641 202.203 36.8767L202.263 36.9367C202.448 37.1224 202.596 37.343 202.697 37.5858C202.797 37.8286 202.849 38.0889 202.849 38.3517C202.849 38.6145 202.797 38.8748 202.697 39.1176C202.596 39.3604 202.448 39.581 202.263 39.7667C202.077 39.9527 201.856 40.1002 201.613 40.2008C201.371 40.3015 201.11 40.3533 200.848 40.3533C200.585 40.3533 200.324 40.3015 200.082 40.2008C199.839 40.1002 199.618 39.9527 199.433 39.7667L199.373 39.7067C199.137 39.4762 198.838 39.3215 198.513 39.2627C198.189 39.2039 197.854 39.2436 197.553 39.3767C197.257 39.5035 197.005 39.7139 196.827 39.9822C196.649 40.2505 196.554 40.5649 196.553 40.8867V41.0567C196.553 41.5871 196.342 42.0958 195.967 42.4709C195.592 42.846 195.083 43.0567 194.553 43.0567C194.022 43.0567 193.513 42.846 193.138 42.4709C192.763 42.0958 192.553 41.5871 192.553 41.0567V40.9667C192.545 40.6357 192.438 40.3147 192.245 40.0454C192.052 39.7761 191.783 39.571 191.473 39.4567C191.171 39.3236 190.836 39.2839 190.512 39.3427C190.188 39.4015 189.888 39.5562 189.653 39.7867L189.593 39.8467C189.407 40.0327 189.186 40.1802 188.943 40.2808C188.701 40.3815 188.44 40.4333 188.178 40.4333C187.915 40.4333 187.654 40.3815 187.412 40.2808C187.169 40.1802 186.948 40.0327 186.763 39.8467C186.577 39.661 186.429 39.4404 186.328 39.1976C186.228 38.9548 186.176 38.6945 186.176 38.4317C186.176 38.1689 186.228 37.9086 186.328 37.6658C186.429 37.423 186.577 37.2024 186.763 37.0167L186.823 36.9567C187.053 36.721 187.208 36.4217 187.267 36.0973C187.325 35.7729 187.286 35.4383 187.153 35.1367C187.026 34.8409 186.815 34.5887 186.547 34.411C186.279 34.2333 185.964 34.138 185.643 34.1367H185.473C184.942 34.1367 184.433 33.926 184.058 33.5509C183.683 33.1758 183.473 32.6671 183.473 32.1367C183.473 31.6063 183.683 31.0976 184.058 30.7225C184.433 30.3474 184.942 30.1367 185.473 30.1367H185.563C185.894 30.129 186.215 30.0218 186.484 29.8292C186.753 29.6366 186.958 29.3674 187.073 29.0567C187.206 28.7551 187.245 28.4205 187.187 28.0961C187.128 27.7717 186.973 27.4724 186.743 27.2367L186.683 27.1767C186.497 26.991 186.349 26.7704 186.248 26.5276C186.148 26.2848 186.096 26.0245 186.096 25.7617C186.096 25.4989 186.148 25.2386 186.248 24.9958C186.349 24.753 186.497 24.5324 186.683 24.3467C186.868 24.1607 187.089 24.0132 187.332 23.9126C187.574 23.8119 187.835 23.7601 188.098 23.7601C188.36 23.7601 188.621 23.8119 188.863 23.9126C189.106 24.0132 189.327 24.1607 189.513 24.3467L189.573 24.4067C189.808 24.6372 190.108 24.7919 190.432 24.8507C190.756 24.9095 191.091 24.8698 191.393 24.7367H191.473C191.768 24.6099 192.021 24.3995 192.198 24.1312C192.376 23.8629 192.471 23.5485 192.473 23.2267V23.0567C192.473 22.5263 192.683 22.0176 193.058 21.6425C193.433 21.2674 193.942 21.0567 194.473 21.0567C195.003 21.0567 195.512 21.2674 195.887 21.6425C196.262 22.0176 196.473 22.5263 196.473 23.0567V23.1467C196.474 23.4685 196.569 23.7829 196.747 24.0512C196.925 24.3195 197.177 24.5299 197.473 24.6567C197.774 24.7898 198.109 24.8295 198.433 24.7707C198.758 24.7119 199.057 24.5572 199.293 24.3267L199.353 24.2667C199.538 24.0807 199.759 23.9332 200.002 23.8326C200.244 23.7319 200.505 23.6801 200.768 23.6801C201.03 23.6801 201.291 23.7319 201.533 23.8326C201.776 23.9332 201.997 24.0807 202.183 24.2667C202.368 24.4524 202.516 24.673 202.617 24.9158C202.717 25.1586 202.769 25.4189 202.769 25.6817C202.769 25.9445 202.717 26.2048 202.617 26.4476C202.516 26.6904 202.368 26.911 202.183 27.0967L202.123 27.1567C201.892 27.3924 201.737 27.6917 201.679 28.0161C201.62 28.3405 201.659 28.6751 201.793 28.9767V29.0567C201.919 29.3525 202.13 29.6047 202.398 29.7824C202.666 29.9601 202.981 30.0554 203.303 30.0567H203.473C204.003 30.0567 204.512 30.2674 204.887 30.6425C205.262 31.0176 205.473 31.5263 205.473 32.0567C205.473 32.5871 205.262 33.0958 204.887 33.4709C204.512 33.846 204.003 34.0567 203.473 34.0567H203.383C203.061 34.058 202.746 34.1533 202.478 34.331C202.21 34.5087 201.999 34.7609 201.873 35.0567Z" stroke="#EC3750" stroke-width="2" stroke-linecap="round" stroke-linejoin="round"/>
</g>
<g clip-path="url(#clip3_178_175)">
<path d="M583.473 67.0567C588.995 67.0567 593.473 62.5796 593.473 57.0567C593.473 51.5339 588.995 47.0567 583.473 47.0567C577.95 47.0567 573.473 51.5339 573.473 57.0567C573.473 62.5796 577.95 67.0567 583.473 67.0567Z" stroke="#EC3750" stroke-width="2.5" stroke-linecap="round" stroke-linejoin="round"/>
<path d="M587.713 52.8167L585.593 59.1767L579.233 61.2967L581.353 54.9367L587.713 52.8167Z" stroke="#EC3750" stroke-width="2.5" stroke-linecap="round" stroke-linejoin="round"/>
</g>
<g clip-path="url(#clip4_178_175)">
<path d="M173.777 40.1959C175.403 39.8803 176.466 38.306 176.15 36.6794C175.835 35.0529 174.26 33.9902 172.634 34.3058C171.007 34.6214 169.945 36.1957 170.26 37.8223C170.576 39.4488 172.15 40.5115 173.777 40.1959ZM173.777 40.1959L176.443 53.9396M176.443 53.9396C173.84 54.4448 171.142 53.895 168.944 52.4112C166.746 50.9273 165.227 48.631 164.722 46.0274L167.667 45.456M176.443 53.9396C179.047 53.4345 181.343 51.9157 182.827 49.7175C184.311 47.5193 184.861 44.8216 184.355 42.218L181.41 42.7894" stroke="#EC3750" stroke-width="2.5" stroke-linecap="round" stroke-linejoin="round"/>
</g>
<g clip-path="url(#clip5_178_175)">
<path d="M245.767 122.251L249.667 126.349M249.667 126.349L253.765 122.449M249.667 126.349L249.865 118.351M259.763 122.598C259.626 128.119 255.04 132.484 249.518 132.347C243.997 132.21 239.632 127.624 239.769 122.103C239.906 116.581 244.492 112.216 250.014 112.353C255.535 112.49 259.9 117.077 259.763 122.598Z" stroke="#252429" stroke-width="2.5" stroke-linecap="round" stroke-linejoin="round"/>
</g>
<g clip-path="url(#clip6_178_175)">
<path d="M228.722 102.244L224.659 106.18M224.659 106.18L228.596 110.243M224.659 106.18L232.658 106.306M228.502 116.242C222.98 116.155 218.574 111.609 218.66 106.087C218.747 100.564 223.293 96.1579 228.815 96.2443C234.338 96.3308 238.744 100.877 238.658 106.4C238.571 111.922 234.025 116.328 228.502 116.242Z" stroke="#252429" stroke-width="2.5" stroke-linecap="round" stroke-linejoin="round"/>
</g>
<g clip-path="url(#clip7_178_175)">
<path d="M377.646 57.6011L364.491 58.1249L359.931 45.7742C359.871 45.6076 359.865 45.4262 359.914 45.2558C359.963 45.0855 360.064 44.935 360.204 44.8259L363.317 42.3595L369.516 37.4684C369.57 37.4307 369.632 37.406 369.697 37.3964C369.803 37.3802 369.911 37.4043 370 37.4639C370.09 37.5235 370.153 37.6143 370.179 37.7185C370.194 37.7883 370.191 37.8608 370.171 37.9292L368.041 45.5134L374.778 50.0109L380.977 45.1198C381.031 45.082 381.092 45.0574 381.157 45.0478C381.263 45.0316 381.372 45.0557 381.461 45.1153C381.55 45.1748 381.614 45.2657 381.64 45.3698C381.655 45.4397 381.652 45.5122 381.631 45.5806L379.491 53.1814L378.459 57.0137C378.405 57.186 378.296 57.3362 378.15 57.4421C378.003 57.5479 377.827 57.6037 377.646 57.6011Z" stroke="#EC3750" stroke-width="2.5" stroke-linecap="round" stroke-linejoin="round"/>
</g>
<defs>
<clipPath id="clip0_178_175">
<rect width="24" height="24" fill="white" transform="translate(436.866 99.1682) rotate(-18.7597)"/>
</clipPath>
<clipPath id="clip1_178_175">
<rect width="24" height="24" fill="white" transform="translate(0.472534 13.7916) rotate(-32.0474)"/>
</clipPath>
<clipPath id="clip2_178_175">
<rect width="24" height="24" fill="white" transform="translate(182.473 20.0567)"/>
</clipPath>
<clipPath id="clip3_178_175">
<rect width="24" height="24" fill="white" transform="translate(571.473 45.0567)"/>
</clipPath>
<clipPath id="clip4_178_175">
<rect width="24" height="24" fill="white" transform="translate(160.473 34.628) rotate(-10.9803)"/>
</clipPath>
<clipPath id="clip5_178_175">
<rect width="24" height="24" fill="white" transform="translate(238.067 110.057) rotate(1.41866)"/>
</clipPath>
<clipPath id="clip6_178_175">
<rect width="24" height="24" fill="white" transform="translate(240.845 94.4324) rotate(90.8969)"/>
</clipPath>
<clipPath id="clip7_178_175">
<rect width="24" height="24" fill="white" transform="translate(366.799 33.0567) rotate(33.7281)"/>
</clipPath>
</defs>
</svg>
