<svg width="528" height="138" viewBox="0 0 528 138" fill="none" xmlns="http://www.w3.org/2000/svg">
<path d="M523.582 116.022L515.841 126.53C514.726 128.002 513.639 128.701 512.407 128.5C511.46 128.346 505.074 125.75 501.062 120.525C495.718 122.281 490.416 122.585 485.584 121.798C469.76 119.222 458.091 104.872 460.574 89.617C462.426 78.2467 473.148 63.1659 491.909 66.2205C496.647 66.9919 501.12 68.7901 504.553 71.0025C505.23 70.4318 506.129 70.2864 507.266 70.4716L507.74 70.5487L523.9 74.6389C526.333 75.2295 526.796 76.5693 526.611 77.7063L526.534 78.1801C523.803 86.5866 521.134 94.614 520.116 100.868C519.191 106.553 519.569 110.797 522.339 112.901C523.21 113.529 524.159 114.268 524.005 115.215C523.974 115.405 523.833 115.673 523.582 116.022ZM496.946 104.584C497.063 102.075 497.305 99.3907 497.783 96.4534C498.184 93.9898 498.696 91.4469 499.348 88.6352C498.52 86.555 496.177 84.812 493.429 84.3646C487.46 83.3927 483.203 88.6326 482.416 93.465C481.552 98.7711 484.507 103.921 490.666 104.924C492.466 105.217 494.612 105.177 496.946 104.584Z" fill="#EC3750"/>
<path d="M457.702 97.5654L457.409 100.72C456.91 106.073 457.753 110.49 461.334 114.487C461.863 115.018 462.73 116.063 462.632 117.114C462.579 117.688 462.239 118.235 461.525 118.65C461.507 118.841 451.413 124.748 451.413 124.748C450.386 125.423 449.403 125.621 448.543 125.541C446.822 125.381 432 118.892 433.583 101.877L433.885 98.6273C434.819 88.5907 430.336 83.9313 423.393 82.8996L418.348 117.429C418.26 118.385 417.319 119.165 416.363 119.076L416.172 119.058L397.144 116.323C396.006 116.121 395.321 115.19 395.428 114.043L402.633 64.5774C402.827 63.5349 403.767 62.7546 404.723 62.8436L404.914 62.8614L415.567 64.4311C419.366 64.0132 422.938 63.96 426.379 64.2802C445.783 66.0857 459.401 79.3082 457.702 97.5654Z" fill="#EC3750"/>
<path d="M384.323 114.453L365.645 109.906L365.461 109.852C364.449 109.551 363.958 108.504 364.167 107.464L375.179 61.9645C375.507 60.8602 376.489 60.2506 377.621 60.4866L396.299 65.0335L396.483 65.0882C397.404 65.3615 397.986 66.4358 397.713 67.356L386.673 112.948L386.619 113.132C386.345 114.052 385.271 114.635 384.323 114.453ZM404.187 50.9527C401.973 58.4068 394.095 62.6763 386.641 60.4621C379.095 58.2206 374.826 50.3427 377.04 42.8886C379.281 35.3425 387.159 31.073 394.705 33.3145C402.159 35.5287 406.429 43.4066 404.187 50.9527Z" fill="#EC3750"/>
<path d="M329.62 114.728L320.253 112.221C318.398 111.725 316.828 110.908 316.28 108.873L305.812 62.9421C305.596 61.8907 305.609 61.0992 305.783 60.45C306.056 59.4299 306.786 58.9296 307.93 58.7389C310.429 58.3143 323.918 56.5571 325.865 57.0781C327.256 57.4504 328.01 58.3477 328.225 59.3991L332.483 85.0845C332.544 85.5978 332.773 85.8577 332.958 85.9073C333.237 85.9818 333.472 85.8459 333.899 85.3639C339.155 78.7206 347.903 66.453 348.974 65.0501C349.853 63.9934 350.929 63.6851 352.135 64.0077C352.784 64.1814 353.408 64.4478 354.076 64.9246L365.485 72.0519C367.444 73.2717 368.031 74.4224 367.683 75.7208C367.286 77.2046 348.202 107.675 334.165 114.453C333.039 114.947 331.289 115.174 329.62 114.728Z" fill="#EC3750"/>
<path d="M305.839 88.9525C305.839 107.673 286.831 118.137 273.199 118.137C257.551 118.137 243.823 106.809 243.823 89.9125C243.823 70.1365 258.607 59.8645 275.503 59.8645C296.719 59.8645 305.839 76.4725 305.839 88.9525ZM275.503 99.8005C282.319 99.8005 285.391 94.2325 285.391 88.7605C285.391 86.9365 285.007 77.6245 275.215 77.6245C267.151 77.6245 264.847 84.4405 264.847 88.7605C264.847 95.3845 270.031 99.8005 275.503 99.8005Z" fill="#EC3750"/>
<path d="M239.317 88.7866L228.79 97.2824C227.754 98.0768 226.854 98.4109 225.933 98.1382C225.473 98.0019 224.975 97.6542 224.532 97.1224C220.451 92.309 211.045 81.813 207.223 77.4768C206.78 76.945 206.446 76.0451 206.691 75.2167C206.828 74.7564 207.148 74.3507 207.772 73.9348L217.01 67.7605C211.525 69.0392 206.609 70.086 204.496 70.4611L203.862 70.5736L200.027 86.5589C199.7 87.6635 198.691 88.3658 197.586 88.0386L178.877 83.5974C177.865 83.2975 177.163 82.2884 177.398 81.1566L195.81 4.80985L195.864 4.62575C196.137 3.70529 197.211 3.12229 198.159 3.30293L216.84 7.83609L217.025 7.89063C218.037 8.19058 218.528 9.23714 218.32 10.2769L208.756 49.9963C213.403 48.1688 232.725 41.0771 236.775 42.2769C237.511 42.495 238.231 43.1086 238.612 44.5234L242.571 59.2128C242.776 59.8742 242.796 60.481 242.633 61.0333C242.36 61.9537 241.562 62.6185 240.294 62.8436C237.666 63.2664 231.574 64.5656 225.151 65.967C230.994 69.9008 241.515 83.7308 240.507 87.1365C240.343 87.6888 239.995 88.1865 239.317 88.7866Z" fill="#EC3750"/>
<path d="M179.607 61.7453L176.245 73.7446C175.974 74.9285 175.017 75.9865 173.87 76.0984C173.488 76.1357 172.991 75.9913 172.581 75.7419C170.722 74.4766 167.275 73.7519 163.931 74.0783C161.447 74.3208 153.19 75.7053 154.206 86.1198C154.831 92.5214 159.828 96.2778 166.038 95.6717C170.147 95.2708 174.747 92.9891 178.923 88.3375C179.44 87.7083 180.253 87.1466 181.113 87.0627C181.782 86.9974 182.584 87.305 183.364 88.3863C185.401 91.467 186.716 93.0749 188.552 96.0787C188.895 96.624 189.151 97.2742 189.216 97.943C189.328 99.0896 188.953 100.187 187.919 101.446C180.897 109.558 172.042 113.702 163.443 114.541C147.582 116.089 132.455 106.376 130.814 89.5603C128.725 68.158 144.979 57.7942 160.744 56.2555C171.35 55.2205 179.404 58.6785 179.637 61.0671C179.656 61.2582 179.684 61.5449 179.607 61.7453Z" fill="#EC3750"/>
<path d="M130.551 100.487L123.087 111.194C122.01 112.694 120.943 113.421 119.706 113.253C118.755 113.123 112.303 110.695 108.156 105.577C102.86 107.471 97.568 107.914 92.7167 107.253C76.8313 105.091 64.7912 91.0502 66.8761 75.7354C68.43 64.3207 78.7558 48.9652 97.59 51.5293C102.346 52.1768 106.865 53.8577 110.354 55.9798C111.016 55.3916 111.911 55.2228 113.052 55.3782L113.528 55.4429L129.79 59.1101C132.237 59.637 132.735 60.9643 132.579 62.1057L132.514 62.5813C130.004 71.0562 127.546 79.1506 126.691 85.4287C125.914 91.136 126.404 95.3687 129.228 97.4002C130.114 98.0053 131.083 98.7185 130.953 99.6697C130.927 99.86 130.793 100.132 130.551 100.487ZM103.626 89.7488C103.677 87.2367 103.849 84.5474 104.251 81.5986C104.587 79.1254 105.032 76.5701 105.611 73.7423C104.728 71.6844 102.341 70.0031 99.5829 69.6275C93.5902 68.8117 89.471 74.1609 88.8105 79.0122C88.0854 84.339 91.1735 89.41 97.3565 90.2517C99.1638 90.4977 101.308 90.4021 103.626 89.7488Z" fill="#EC3750"/>
<path d="M75.2072 106.17L67.0719 114.717C66.1295 115.704 65.212 116.107 64.3545 116.213C63.9734 116.26 45.9474 115.193 43.5631 95.8517C42.142 84.3229 36.3013 80.8837 29.4412 81.7294L28.9648 81.7881L33.2284 116.374C33.3693 117.518 32.6175 118.481 31.5694 118.61L12.5137 120.959C11.3703 121.1 10.4071 120.348 10.2662 119.205L0.65852 41.2668C0.529322 40.2188 1.26938 39.1603 2.41272 39.0193L21.4685 36.6703C22.5166 36.5411 23.4915 37.3882 23.6207 38.4362L26.6745 63.2087C27.8061 62.9725 28.9494 62.8315 29.9975 62.7024C47.9099 60.4942 63.5172 69.4037 66.1286 88.2336C66.9873 94.415 68.8132 99.0263 73.94 102.167C74.5704 102.573 75.7359 103.396 75.8651 104.444C75.9238 104.921 75.8037 105.516 75.2072 106.17Z" fill="#EC3750"/>
<mask id="mask0_219_225" style="mask-type:alpha" maskUnits="userSpaceOnUse" x="1" y="3" width="527" height="126">
<path d="M523.938 115.751L516.197 126.26C515.082 127.732 513.995 128.43 512.764 128.23C511.816 128.076 505.43 125.48 501.418 120.255C496.074 122.011 490.772 122.315 485.94 121.528C470.116 118.952 458.447 104.602 460.93 89.3468C462.782 77.9766 473.505 62.8957 492.266 65.9504C497.003 66.7217 501.476 68.5199 504.909 70.7324C505.586 70.1617 506.485 70.0163 507.622 70.2014L508.096 70.2785L524.257 74.3688C526.689 74.9594 527.152 76.2992 526.967 77.4362L526.89 77.9099C524.159 86.3164 521.49 94.3439 520.472 100.598C519.547 106.283 519.926 110.527 522.695 112.631C523.566 113.259 524.516 113.997 524.361 114.945C524.33 115.134 524.189 115.403 523.938 115.751ZM497.302 104.314C497.419 101.804 497.661 99.1206 498.139 96.1832C498.541 93.7197 499.052 91.1768 499.704 88.3651C498.876 86.2849 496.533 84.5418 493.786 84.0944C487.816 83.1225 483.559 88.3624 482.772 93.1948C481.908 98.5009 484.863 103.651 491.022 104.653C492.822 104.947 494.968 104.907 497.302 104.314Z" fill="#EC3750"/>
<path d="M458.058 97.2952L457.765 100.45C457.267 105.802 458.109 110.22 461.69 114.216C462.219 114.748 463.086 115.793 462.988 116.844C462.935 117.418 462.595 117.964 461.881 118.38C461.863 118.571 451.769 124.477 451.769 124.477C450.742 125.153 449.759 125.351 448.899 125.271C447.178 125.111 432.356 118.622 433.939 101.607L434.241 98.3572C435.175 88.3205 430.692 83.6611 423.749 82.6295L418.705 117.159C418.616 118.114 417.675 118.895 416.719 118.806L416.528 118.788L397.5 116.053C396.362 115.851 395.677 114.919 395.784 113.772L402.99 64.3073C403.183 63.2647 404.123 62.4845 405.079 62.5734L405.27 62.5912L415.923 64.1609C419.722 63.7431 423.294 63.6898 426.735 64.01C446.139 65.8156 459.757 79.0381 458.058 97.2952Z" fill="#EC3750"/>
<path d="M384.68 114.183L366.001 109.636L365.817 109.582C364.805 109.281 364.315 108.234 364.523 107.194L375.535 61.6943C375.863 60.59 376.845 59.9805 377.977 60.2165L396.655 64.7634L396.84 64.818C397.76 65.0914 398.342 66.1656 398.069 67.0859L387.029 112.678L386.975 112.862C386.701 113.782 385.627 114.364 384.68 114.183ZM404.544 50.6825C402.329 58.1366 394.451 62.4062 386.997 60.192C379.451 57.9505 375.182 50.0726 377.396 42.6185C379.637 35.0724 387.515 30.8028 395.061 33.0444C402.516 35.2586 406.785 43.1364 404.544 50.6825Z" fill="#EC3750"/>
<path d="M329.976 114.458L320.609 111.951C318.754 111.455 317.184 110.637 316.636 108.603L306.168 62.672C305.952 61.6205 305.965 60.829 306.139 60.1799C306.412 59.1597 307.142 58.6595 308.286 58.4687C310.785 58.0441 324.274 56.2869 326.221 56.808C327.612 57.1802 328.366 58.0775 328.581 59.129L332.839 84.8143C332.9 85.3276 333.129 85.5875 333.314 85.6372C333.593 85.7116 333.828 85.5758 334.255 85.0938C339.511 78.4505 348.259 66.1828 349.33 64.78C350.209 63.7233 351.285 63.415 352.491 63.7376C353.14 63.9113 353.764 64.1777 354.432 64.6544L365.841 71.7817C367.8 73.0016 368.387 74.1523 368.039 75.4506C367.642 76.9344 348.558 107.405 334.521 114.183C333.395 114.677 331.645 114.904 329.976 114.458Z" fill="#EC3750"/>
<path d="M306.195 88.6824C306.195 107.402 287.187 117.866 273.555 117.866C257.907 117.866 244.179 106.538 244.179 89.6424C244.179 69.8664 258.963 59.5944 275.859 59.5944C297.075 59.5944 306.195 76.2024 306.195 88.6824ZM275.859 99.5304C282.675 99.5304 285.747 93.9624 285.747 88.4904C285.747 86.6664 285.363 77.3544 275.571 77.3544C267.507 77.3544 265.203 84.1704 265.203 88.4904C265.203 95.1144 270.387 99.5304 275.859 99.5304Z" fill="#EC3750"/>
<path d="M239.673 88.5164L229.146 97.0123C228.11 97.8067 227.21 98.1408 226.289 97.8681C225.829 97.7318 225.331 97.3841 224.888 96.8523C220.807 92.0389 211.401 81.5428 207.579 77.2067C207.136 76.6749 206.802 75.7749 207.048 74.9465C207.184 74.4863 207.504 74.0806 208.128 73.6646L217.366 67.4904C211.881 68.7691 206.965 69.8159 204.852 70.191L204.218 70.3035L200.383 86.2888C200.056 87.3933 199.047 88.0956 197.943 87.7684L179.233 83.3273C178.221 83.0273 177.519 82.0183 177.754 80.8865L196.166 4.53971L196.22 4.35561C196.493 3.43515 197.567 2.85215 198.515 3.03279L217.197 7.56595L217.381 7.62049C218.393 7.92044 218.884 8.967 218.676 10.0068L209.112 49.7262C213.759 47.8987 233.081 40.8069 237.131 42.0067C237.867 42.2249 238.587 42.8385 238.969 44.2532L242.927 58.9427C243.132 59.604 243.152 60.2108 242.989 60.7631C242.716 61.6836 241.918 62.3484 240.65 62.5734C238.022 62.9963 231.93 64.2954 225.507 65.6968C231.35 69.6306 241.872 83.4607 240.863 86.8664C240.699 87.4187 240.351 87.9164 239.673 88.5164Z" fill="#EC3750"/>
<path d="M179.963 61.4752L176.601 73.4745C176.33 74.6583 175.373 75.7164 174.226 75.8283C173.844 75.8656 173.347 75.7211 172.937 75.4718C171.078 74.2064 167.631 73.4818 164.287 73.8082C161.803 74.0506 153.546 75.4352 154.562 85.8497C155.187 92.2513 160.184 96.0077 166.394 95.4016C170.503 95.0006 175.103 92.719 179.279 88.0674C179.796 87.4381 180.609 86.8765 181.469 86.7926C182.138 86.7273 182.94 87.0349 183.721 88.1161C185.757 91.1969 187.072 92.8048 188.908 95.8086C189.251 96.3539 189.507 97.0041 189.572 97.6729C189.684 98.8195 189.309 99.9171 188.275 101.176C181.253 109.288 172.398 113.432 163.799 114.271C147.938 115.819 132.811 106.106 131.17 89.2902C129.081 67.8879 145.335 57.524 161.101 55.9854C171.706 54.9503 179.76 58.4084 179.993 60.797C180.012 60.9881 180.04 61.2747 179.963 61.4752Z" fill="#EC3750"/>
<path d="M130.907 100.217L123.443 110.924C122.367 112.424 121.299 113.151 120.062 112.983C119.111 112.853 112.66 110.425 108.512 105.306C103.216 107.201 97.924 107.644 93.0728 106.983C77.1873 104.82 65.1472 90.78 67.2321 75.4653C68.7861 64.0506 79.1118 48.6951 97.9461 51.2591C102.702 51.9066 107.221 53.5875 110.71 55.7096C111.372 55.1215 112.267 54.9527 113.408 55.108L113.884 55.1728L130.146 58.8399C132.593 59.3669 133.091 60.6941 132.935 61.8356L132.87 62.3112C130.36 70.7861 127.902 78.8804 127.047 85.1585C126.27 90.8659 126.76 95.0986 129.584 97.1301C130.47 97.7352 131.439 98.4484 131.309 99.3996C131.283 99.5898 131.149 99.8623 130.907 100.217ZM103.982 89.4786C104.033 86.9666 104.205 84.2773 104.607 81.3285C104.944 78.8553 105.388 76.2999 105.967 73.4721C105.085 71.4143 102.698 69.7329 99.939 69.3574C93.9463 68.5415 89.8271 73.8908 89.1666 78.742C88.4414 84.0689 91.5296 89.1398 97.7126 89.9816C99.5199 90.2276 101.664 90.132 103.982 89.4786Z" fill="#EC3750"/>
<path d="M75.5633 105.9L67.428 114.447C66.4856 115.434 65.5681 115.837 64.7105 115.943C64.3294 115.99 46.3035 114.923 43.9192 95.5815C42.498 84.0528 36.6574 80.6136 29.7973 81.4592L29.3209 81.5179L33.5844 116.104C33.7254 117.247 32.9736 118.211 31.9255 118.34L12.8698 120.689C11.7264 120.83 10.7632 120.078 10.6223 118.935L1.0146 40.9967C0.885401 39.9486 1.62546 38.8901 2.7688 38.7492L21.8246 36.4001C22.8726 36.2709 23.8476 37.118 23.9768 38.1661L27.0306 62.9386C28.1622 62.7024 29.3055 62.5614 30.3536 62.4322C48.266 60.2241 63.8733 69.1335 66.4847 87.9635C67.3434 94.1449 69.1693 98.7561 74.296 101.896C74.9264 102.302 76.092 103.126 76.2212 104.174C76.2799 104.65 76.1598 105.246 75.5633 105.9Z" fill="#EC3750"/>
</mask>
<g mask="url(#mask0_219_225)">
<path d="M99.4488 105.109L60.4505 93.1238C38.752 86.4555 15.7923 98.8264 9.42691 120.616C2.06192 145.827 20.1498 171.309 46.379 172.674L480.96 195.292C507.11 196.653 527.347 172.698 521.638 147.144L520.1 140.256C515.779 120.914 495.606 109.621 476.858 116.049C466.054 119.753 454.105 117.654 445.21 110.489L439.671 106.027C429.974 98.2155 416.413 97.3467 405.799 103.857L404.18 104.85C393.518 111.389 379.763 109.763 370.92 100.92C363.366 93.3665 352.075 90.9671 342.103 94.7963L319.155 103.609C304.589 109.202 288.234 107.567 275.064 99.1997L265.777 93.2995C258.079 88.4089 248.484 87.5655 240.051 91.038C232.409 94.1845 223.769 93.802 216.435 89.9923L208.781 86.016C196.558 79.6665 182.153 79.0463 169.43 84.3218L154.545 90.4934C150.533 92.1569 146.764 94.3539 143.34 97.025C130.906 106.723 114.521 109.741 99.4488 105.109Z" fill="#252429"/>
<path opacity="0.5" d="M99.4488 97.1086L60.4505 85.1238C38.752 78.4555 15.7923 90.8264 9.42691 112.616C2.06192 137.827 20.1498 163.309 46.379 164.674L480.96 187.292C507.11 188.653 527.347 164.698 521.638 139.144L520.1 132.256C515.779 112.914 495.606 101.621 476.858 108.049C466.054 111.753 454.105 109.654 445.21 102.489L439.671 98.0268C429.974 90.2155 416.413 89.3467 405.799 95.8568L404.18 96.8496C393.518 103.389 379.763 101.763 370.92 92.9195C363.366 85.3665 352.075 82.9671 342.103 86.7963L319.155 95.6086C304.589 101.202 288.234 99.5665 275.064 91.1997L265.777 85.2995C258.079 80.4089 248.484 79.5655 240.051 83.038C232.409 86.1845 223.769 85.802 216.435 81.9923L208.781 78.016C196.558 71.6665 182.153 71.0463 169.43 76.3218L154.545 82.4934C150.533 84.1569 146.764 86.3539 143.34 89.025C130.906 98.7231 114.521 101.741 99.4488 97.1086Z" fill="#252429"/>
<path opacity="0.25" d="M99.4488 91.1086L60.4505 79.1238C38.752 72.4555 15.7923 84.8264 9.42691 106.616C2.06192 131.827 20.1498 157.309 46.379 158.674L480.96 181.292C507.11 182.653 527.347 158.698 521.638 133.144L520.1 126.256C515.779 106.914 495.606 95.6209 476.858 102.049C466.054 105.753 454.105 103.654 445.21 96.4885L439.671 92.0268C429.974 84.2155 416.413 83.3467 405.799 89.8568L404.18 90.8496C393.518 97.3888 379.763 95.7635 370.92 86.9195C363.366 79.3665 352.075 76.9671 342.103 80.7963L319.155 89.6086C304.589 95.2019 288.234 93.5665 275.064 85.1997L265.777 79.2995C258.079 74.4089 248.484 73.5655 240.051 77.038C232.409 80.1845 223.769 79.802 216.435 75.9923L208.781 72.016C196.558 65.6665 182.153 65.0463 169.43 70.3218L154.545 76.4934C150.533 78.1569 146.764 80.3539 143.34 83.025C130.906 92.7231 114.521 95.7407 99.4488 91.1086Z" fill="#252429"/>
</g>
<g clip-path="url(#clip0_219_225)">
<path d="M53.7142 60.0073C47.3356 58.9998 49.4795 54.5401 47.5176 52.9107M59.9107 67.1039L61.9849 62.7892C62.2823 62.2776 62.4674 61.7087 62.5279 61.1201C62.5884 60.5315 62.5229 59.9367 62.3358 59.3754C66.0243 60.6681 70.3413 61.1101 73.2678 55.0226C74.0158 53.4659 74.1366 51.6811 73.6053 50.0377C74.7682 48.9202 75.4559 47.3976 75.5256 45.7862C75.5256 45.7862 74.3976 44.7635 70.373 45.3406C68.1505 43.4196 65.4568 42.1247 62.5685 41.5888C60.5056 38.0853 59.0024 37.843 59.0024 37.843C57.7875 38.9038 57.0279 40.3918 56.8814 41.998C55.2541 42.614 53.9286 43.8363 53.1831 45.4085C50.2781 51.4514 53.3195 54.5469 56.6113 56.6646C56.0623 56.8673 55.5621 57.1834 55.1433 57.5922C54.7245 58.001 54.3964 58.4934 54.1805 59.0373L52.1062 63.3521" stroke="#EC3750" stroke-width="2" stroke-linecap="round" stroke-linejoin="round"/>
</g>
<g clip-path="url(#clip1_219_225)">
<path d="M468.196 68.6592L451.764 69.3135L446.068 53.8859C445.992 53.6778 445.985 53.4511 446.046 53.2383C446.107 53.0255 446.234 52.8375 446.408 52.7012L450.297 49.6204L458.041 43.5108C458.108 43.4636 458.185 43.4328 458.266 43.4209C458.399 43.4006 458.534 43.4307 458.646 43.5051C458.757 43.5795 458.837 43.693 458.869 43.8231C458.888 43.9104 458.884 44.001 458.858 44.0864L456.198 53.56L464.613 59.178L472.357 53.0684C472.424 53.0212 472.501 52.9904 472.582 52.9785C472.715 52.9582 472.85 52.9883 472.961 53.0627C473.073 53.1372 473.153 53.2506 473.185 53.3807C473.204 53.468 473.2 53.5586 473.174 53.644L470.5 63.1384L469.212 67.9254C469.144 68.1407 469.008 68.3284 468.825 68.4606C468.642 68.5928 468.422 68.6624 468.196 68.6592Z" stroke="#EC3750" stroke-width="2.5" stroke-linecap="round" stroke-linejoin="round"/>
</g>
<path d="M207.565 99.0925L202.061 104.427M202.061 104.427L207.395 109.931M202.061 104.427L212.899 104.596M207.268 118.059C199.786 117.942 193.816 111.782 193.933 104.299C194.05 96.8174 200.21 90.8469 207.692 90.964C215.175 91.0811 221.145 97.2415 221.028 104.724C220.911 112.206 214.75 118.176 207.268 118.059Z" stroke="#252429" stroke-width="2.5" stroke-linecap="round" stroke-linejoin="round"/>
<path d="M240.931 23.5366L235.537 18.092M235.537 18.092L230.092 23.4866M235.537 18.092L235.487 28.9313M221.963 23.4492C221.997 15.9662 228.091 9.92804 235.574 9.96254C243.057 9.99704 249.095 16.0911 249.061 23.5741C249.026 31.0571 242.932 37.0952 235.449 37.0607C227.966 37.0262 221.928 30.9321 221.963 23.4492Z" stroke="#EC3750" stroke-width="2.5" stroke-linecap="round" stroke-linejoin="round"/>
<path d="M260.556 49.9004L265.9 44.4066M265.9 44.4066L260.407 39.062M265.9 44.4066L255.062 44.5558M260.295 30.9332C267.777 30.8303 273.926 36.8125 274.029 44.2948C274.132 51.7771 268.15 57.9262 260.668 58.0292C253.185 58.1321 247.036 52.1499 246.933 44.6676C246.83 37.1853 252.812 31.0362 260.295 30.9332Z" stroke="#EC3750" stroke-width="2.5" stroke-linecap="round" stroke-linejoin="round"/>
<path d="M231.035 119.52L236.52 124.874M236.52 124.874L241.874 119.389M236.52 124.874L236.389 114.035M250.003 119.291C250.093 126.773 244.101 132.912 236.619 133.003C229.136 133.093 222.997 127.101 222.906 119.619C222.816 112.136 228.808 105.997 236.291 105.906C243.773 105.816 249.912 111.808 250.003 119.291Z" stroke="#252429" stroke-width="2.5" stroke-linecap="round" stroke-linejoin="round"/>
<g clip-path="url(#clip2_219_225)">
<path d="M169.634 44.5254C171.542 44.2142 172.836 42.4154 172.525 40.5076C172.214 38.5999 170.415 37.3055 168.507 37.6167C166.6 37.9278 165.305 39.7266 165.617 41.6344C165.928 43.5422 167.726 44.8366 169.634 44.5254Z" stroke="#EC3750" stroke-width="2" stroke-linecap="round" stroke-linejoin="round"/>
<path d="M178.155 43.1357C178.058 43.508 178.076 43.9007 178.204 44.2632C178.333 44.6256 178.567 44.9413 178.877 45.1693L178.957 45.2272C179.206 45.4061 179.417 45.6324 179.579 45.8931C179.74 46.1537 179.849 46.4437 179.898 46.7463C179.948 47.049 179.937 47.3584 179.867 47.6568C179.796 47.9553 179.668 48.237 179.489 48.4858C179.31 48.7348 179.083 48.9461 178.823 49.1076C178.562 49.269 178.272 49.3776 177.969 49.4269C177.667 49.4763 177.357 49.4655 177.059 49.3952C176.761 49.3249 176.479 49.1965 176.23 49.0173L176.15 48.9594C175.835 48.7382 175.461 48.6164 175.077 48.6096C174.692 48.6028 174.314 48.7113 173.992 48.9212C173.675 49.1228 173.424 49.4125 173.27 49.7548C173.116 50.0971 173.065 50.477 173.124 50.8477L173.156 51.0435C173.256 51.6543 173.109 52.2796 172.747 52.7819C172.386 53.2842 171.84 53.6224 171.229 53.722C170.618 53.8216 169.993 53.6745 169.49 53.3131C168.988 52.9516 168.65 52.4055 168.55 51.7947L168.533 51.6911C168.462 51.3114 168.279 50.9619 168.006 50.688C167.734 50.4141 167.386 50.2284 167.006 50.1552C166.634 50.0586 166.241 50.0757 165.879 50.2043C165.516 50.333 165.201 50.5672 164.973 50.877L164.915 50.9573C164.736 51.2063 164.51 51.4176 164.249 51.5791C163.988 51.7406 163.698 51.8491 163.396 51.8985C163.093 51.9478 162.784 51.937 162.485 51.8667C162.187 51.7965 161.905 51.668 161.656 51.4888C161.407 51.3098 161.196 51.0836 161.034 50.8229C160.873 50.5622 160.764 50.2723 160.715 49.9696C160.666 49.667 160.676 49.3576 160.747 49.0591C160.817 48.7607 160.945 48.479 161.125 48.2302L161.182 48.1498C161.404 47.8352 161.526 47.4614 161.532 47.0769C161.539 46.6923 161.431 46.3145 161.221 45.9922C161.019 45.6754 160.729 45.4245 160.387 45.2703C160.045 45.1161 159.665 45.0654 159.294 45.1243L159.098 45.1563C158.488 45.2559 157.862 45.1088 157.36 44.7473C156.858 44.3859 156.52 43.8397 156.42 43.2289C156.32 42.6182 156.467 41.9929 156.829 41.4905C157.19 40.9882 157.736 40.6501 158.347 40.5504L158.451 40.5335C158.831 40.4625 159.18 40.2788 159.454 40.0065C159.728 39.7341 159.913 39.3857 159.987 39.0064C160.083 38.6341 160.066 38.2414 159.938 37.8789C159.809 37.5164 159.575 37.2008 159.265 36.9727L159.185 36.9149C158.936 36.736 158.724 36.5097 158.563 36.249C158.401 35.9883 158.293 35.6984 158.243 35.3958C158.194 35.0931 158.205 34.7837 158.275 34.4853C158.345 34.1868 158.474 33.9051 158.653 33.6563C158.832 33.4073 159.058 33.196 159.319 33.0345C159.58 32.873 159.87 32.7645 160.172 32.7152C160.475 32.6658 160.784 32.6766 161.083 32.7469C161.381 32.8172 161.663 32.9456 161.912 33.1248L161.992 33.1826C162.307 33.4038 162.68 33.5257 163.065 33.5325C163.45 33.5393 163.827 33.4307 164.15 33.2208L164.242 33.2058C164.559 33.0043 164.81 32.7146 164.964 32.3723C165.118 32.03 165.169 31.6501 165.11 31.2793L165.078 31.0836C164.978 30.4728 165.125 29.8475 165.487 29.3452C165.848 28.8428 166.394 28.5047 167.005 28.4051C167.616 28.3054 168.241 28.4525 168.743 28.814C169.246 29.1754 169.584 29.7216 169.684 30.3324L169.7 30.436C169.762 30.8063 169.931 31.1504 170.186 31.4259C170.441 31.7015 170.771 31.8965 171.136 31.9869C171.508 32.0835 171.901 32.0664 172.263 31.9378C172.625 31.8091 172.941 31.5748 173.169 31.2651L173.227 31.1848C173.406 30.9358 173.632 30.7245 173.893 30.563C174.154 30.4015 174.444 30.293 174.746 30.2436C175.049 30.1943 175.358 30.205 175.657 30.2753C175.955 30.3456 176.237 30.4741 176.486 30.6533C176.735 30.8322 176.946 31.0585 177.107 31.3192C177.269 31.5799 177.377 31.8698 177.427 32.1724C177.476 32.4751 177.465 32.7845 177.395 33.0829C177.325 33.3814 177.196 33.6631 177.017 33.9119L176.959 33.9923C176.738 34.3069 176.616 34.6806 176.609 35.0652C176.603 35.4498 176.711 35.8276 176.921 36.1499L176.936 36.242C177.138 36.5587 177.427 36.8097 177.77 36.9639C178.112 37.1181 178.492 37.1688 178.863 37.1099L179.058 37.0779C179.669 36.9783 180.294 37.1254 180.797 37.4869C181.299 37.8483 181.637 38.3945 181.737 39.0052C181.836 39.616 181.689 40.2413 181.328 40.7437C180.967 41.246 180.42 41.5841 179.81 41.6837L179.706 41.7006C179.336 41.7626 178.992 41.9314 178.716 42.1864C178.44 42.4413 178.245 42.7713 178.155 43.1357Z" stroke="#EC3750" stroke-width="2" stroke-linecap="round" stroke-linejoin="round"/>
</g>
<path d="M140.895 42.3258C142.799 42.7284 144.669 41.5111 145.072 39.607C145.474 37.7028 144.257 35.8327 142.353 35.4301C140.449 35.0275 138.579 36.2447 138.176 38.1489C137.773 40.0531 138.991 41.9231 140.895 42.3258ZM140.895 42.3258L137.493 58.4157M137.493 58.4157C134.445 57.7712 131.777 55.9422 130.078 53.3312C128.378 50.7201 127.786 47.5409 128.43 44.4928L131.878 45.2218M137.493 58.4157C140.541 59.0602 143.72 58.4674 146.331 56.7678C148.942 55.0683 150.771 52.4011 151.416 49.353L147.968 48.6239" stroke="#EC3750" stroke-width="2.5" stroke-linecap="round" stroke-linejoin="round"/>
<defs>
<clipPath id="clip0_219_225">
<rect width="29.6895" height="29.6895" fill="white" transform="translate(53.8634 34) rotate(25.675)"/>
</clipPath>
<clipPath id="clip1_219_225">
<rect width="29.9792" height="29.9792" fill="white" transform="translate(454.646 38) rotate(33.7281)"/>
</clipPath>
<clipPath id="clip2_219_225">
<rect width="28" height="28" fill="white" transform="translate(153 29.5072) rotate(-9.26326)"/>
</clipPath>
</defs>
</svg>
