<svg xmlns="http://www.w3.org/2000/svg" width="235" height="70"><path fill="#254aa5" d="M27.4 2.8l-8 8.6c.68 1.2 7.24 12.78 7.88 14 1.27 2.42 2.2 4.8 2.4 7.6.1 1.1.08 6.9.08 8 9.38 2.43 18.46 2.45 27.84 0 0-1.1-.02-6.9.07-8 .2-2.8 1.14-5.18 2.4-7.6.65-1.22 7.2-12.8 7.88-14l-7.98-8.6-10.93 19.34c-2.98 4.9-4.76 11.22-5.36 19-.6-7.78-2.38-14.1-5.36-19zm16.28.44L36 11.9l7.68 13.58 7.68-13.6z"/><path fill="#81c3ed" d="M11.4 1.7L5.12 13.78c1.9 3.33 3.78 6.66 5.65 10 .94 1.67 1.84 3.34 2.47 5.16.64 1.86.88 3.7.9 5.64 4.14 2.52 8.44 4.44 13.1 5.84V35.1c0-1.8-.13-3.53-.63-5.27-.86-3.03-3.2-6.85-4.7-9.53L11.4 1.7zm64.56 0l-10.5 18.57c-1.5 2.68-3.84 6.5-4.7 9.54-.5 1.75-.63 3.5-.63 5.28v5.33c4.65-1.4 8.95-3.3 13.1-5.83.02-1.95.25-3.78.9-5.64.63-1.82 1.53-3.5 2.46-5.17 1.86-3.33 3.75-6.66 5.64-10z"/><path fill="#254aa5" d="M16.63 48.2v12.35c-.16 3.53 2.2 5.3 4.16 6.36 1.96 1.07 3.52 1.43 13.75 1.4V48.2H30.2v17.27c-6.3.2-9.37-2.13-9.18-7.05L21 48.2zm36.2 0v20.1c10.23.03 11.8-.33 13.75-1.4 1.97-1.05 4.33-2.82 4.17-6.35V48.2h-4.37l-.02 10.22c.2 4.92-2.87 7.26-9.17 7.05V48.2zm-7.26 0c-5.84 0-9.13 2.33-9.13 5.67 0 6.28 11.07 4.55 11.07 8.63 0 2.14-2.27 2.97-4.92 2.97-1.9 0-3.74-.32-5.4-.8l-.44 3c1.6.33 3.52.53 5.7.53 5.7 0 9.5-2.56 9.5-6.1 0-6.13-11.2-4.72-11.2-8.6 0-1.62 1.46-2.7 4.64-2.7 1.5 0 3 .2 4.34.54l.4-2.77c-1.37-.23-3.13-.37-4.55-.37z"/><path fill="#254aa5" d="M132.18 8.46c-.36 0-.65.12-.88.35-.23.24-.35.52-.35.84 0 .33.12.6.35.84.23.23.52.35.88.35.34 0 .62-.12.85-.36.23-.24.35-.5.35-.83 0-.34-.12-.62-.35-.84-.23-.23-.5-.34-.85-.34zm38.46 0c-.35 0-.64.12-.87.35-.23.24-.35.52-.35.84 0 .33.12.6.35.84.23.23.52.35.87.35.34 0 .63-.12.86-.36.23-.24.35-.5.35-.83 0-.34-.12-.62-.35-.84-.23-.23-.52-.34-.86-.34zM108 8.93v7.63c0 .63.08 1.25.24 1.86.17.6.47 1.12.92 1.55.38.36.86.64 1.44.85.6.2 1.3.3 2.12.3.86 0 1.6-.12 2.2-.34.6-.23 1.12-.54 1.52-.96.4-.4.67-.87.86-1.43.2-.56.28-1.16.28-1.8V8.93h-1.9v7.65c0 .43-.06.82-.17 1.18-.1.37-.26.68-.5.93-.24.24-.53.43-.9.57-.36.14-.8.2-1.35.2-.47 0-.88-.06-1.23-.2-.34-.14-.63-.33-.86-.58-.27-.3-.46-.62-.58-1-.13-.4-.2-.8-.2-1.23V8.93zm69.28.86l-1.9.57v1.95h-1.5v1.48h1.5v5.37c0 .57.17 1.03.48 1.4.32.36.83.55 1.55.55.42 0 .87-.08 1.36-.23.48-.16.93-.4 1.35-.7l-.52-1.23c-.17.12-.4.24-.65.35-.26.12-.53.18-.8.18-.57 0-.85-.34-.85-1v-4.7h2.08l.6-1.48h-2.68zm16.87 0l-1.9.57v1.95h-1.5v1.48h1.5v5.37c0 .57.17 1.03.48 1.4.32.36.83.55 1.55.55.4 0 .86-.08 1.35-.23.5-.16.94-.4 1.35-.7l-.53-1.23c-.17.12-.4.24-.65.35-.26.12-.53.18-.8.18-.57 0-.85-.34-.85-1v-4.7h2.08l.6-1.48h-2.68zm-68.56 2.3c-.6 0-1.14.1-1.62.32-.48.2-.97.5-1.45.87l-.22-.98h-1.58v8.6h1.9v-6.1c.34-.25.7-.5 1.1-.7.4-.22.83-.32 1.25-.32.3 0 .53.06.7.18.18.12.32.27.4.46.1.2.17.4.2.64s.05.47.05.7v5.15h1.9v-5.75c0-.56-.08-1.03-.23-1.42-.16-.4-.37-.7-.6-.96-.26-.25-.55-.43-.86-.54-.32-.1-.63-.16-.95-.16zm23 0c-.58 0-1.1.12-1.57.36-.47.23-.86.55-1.18.95-.32.4-.57.88-.75 1.43-.18.54-.26 1.1-.26 1.73 0 .6.08 1.15.24 1.7.17.56.42 1.04.77 1.46.34.42.78.76 1.3 1 .52.27 1.15.4 1.88.4.5 0 1.03-.08 1.57-.23.53-.16 1-.4 1.44-.7l-.5-1.25c-.34.2-.7.34-1.04.45-.36.1-.74.15-1.13.15-.38 0-.74-.06-1.05-.2-.32-.12-.6-.3-.8-.5-.24-.23-.4-.5-.54-.8-.13-.3-.2-.62-.2-.98h5.55v-.52c0-.67-.1-1.28-.26-1.83-.17-.54-.4-1-.74-1.4-.32-.4-.7-.7-1.17-.9-.46-.2-.98-.32-1.55-.32zm10.37 0c-.4 0-.77.08-1.13.25-.37.16-.8.47-1.28.92l-.23-.95h-1.6v8.6h1.9v-6.2c.28-.26.58-.47.9-.62.3-.16.58-.23.84-.23.34 0 .66.08.96.23l.73-1.67c-.13-.1-.3-.18-.5-.24-.18-.07-.4-.1-.6-.1zm5.38 0c-1.02 0-1.8.24-2.32.7-.53.47-.8 1.05-.8 1.76 0 .5.1.9.3 1.22.2.32.43.57.72.77.3.2.6.37.96.5.36.14.68.28.97.42.3.14.53.3.73.46.2.17.3.4.3.7 0 .32-.16.57-.45.76-.3.17-.67.26-1.15.26-.45 0-.87-.07-1.26-.2-.38-.15-.72-.32-1-.5l-.64 1.4c.36.2.77.4 1.24.54.48.14 1.06.22 1.75.22.44 0 .87-.05 1.3-.15.4-.1.76-.25 1.07-.46.3-.2.56-.48.75-.8.2-.35.28-.75.28-1.22 0-.5-.1-.9-.3-1.2-.2-.32-.45-.6-.75-.8-.3-.2-.62-.4-.96-.53l-.98-.4c-.3-.14-.55-.3-.75-.45-.2-.17-.3-.38-.3-.63 0-.3.13-.52.4-.66.24-.12.56-.2.95-.2.46 0 .88.07 1.26.18.38.1.73.23 1.07.38v-1.6c-.3-.14-.66-.25-1.04-.33-.37-.1-.83-.13-1.35-.13zm21.14 0c-.58 0-1.13.07-1.65.2-.52.14-1.06.4-1.62.78l.64 1.23c.26-.16.58-.32.94-.47.38-.14.8-.22 1.3-.22s.9.13 1.24.38c.33.24.5.67.5 1.27v.26l-1.6.06c-1.13.05-2 .3-2.64.8-.62.47-.94 1.16-.94 2.04 0 .43.08.8.22 1.14.15.33.34.62.6.85.24.22.53.4.87.52.33.13.7.2 1.07.2.6 0 1.1-.1 1.52-.3.4-.2.75-.43 1.03-.7l.36.8h1.6c-.05-.07-.08-.18-.1-.3 0-.15-.03-.32-.04-.52l-.04-.73v-4.2c0-.56-.1-1.03-.24-1.42-.16-.4-.38-.7-.66-.95s-.62-.43-1.03-.54c-.4-.1-.85-.16-1.34-.16zm16.8 0c-.58 0-1.1.12-1.57.36-.47.23-.86.55-1.2.95-.3.4-.56.88-.73 1.43-.18.54-.27 1.1-.27 1.73 0 .6.1 1.15.25 1.7.16.56.42 1.04.76 1.46.35.42.8.76 1.3 1 .53.27 1.16.4 1.9.4.5 0 1.02-.08 1.55-.23.53-.16 1-.4 1.43-.7l-.5-1.25c-.33.2-.68.34-1.04.45-.37.1-.74.15-1.13.15-.4 0-.74-.06-1.06-.2-.3-.12-.57-.3-.8-.5-.22-.23-.4-.5-.53-.8-.12-.3-.2-.62-.2-.98h5.55v-.52c0-.67-.08-1.28-.25-1.83-.17-.54-.42-1-.74-1.4-.32-.4-.7-.7-1.18-.9-.46-.2-.97-.32-1.54-.32zm9.54 0c-.57 0-1.1.07-1.64.2-.52.14-1.06.4-1.62.78l.64 1.23c.27-.16.58-.32.95-.47.36-.14.8-.22 1.3-.22.48 0 .9.13 1.22.38.33.24.5.67.5 1.27v.26l-1.6.06c-1.14.05-2.02.3-2.64.8-.63.47-.94 1.16-.94 2.04 0 .43.07.8.22 1.14.14.33.34.62.6.85.24.22.53.4.86.52.34.13.7.2 1.07.2.6 0 1.1-.1 1.52-.3.4-.2.74-.43 1.02-.7l.37.8h1.57c-.04-.07-.06-.18-.08-.3-.03-.15-.04-.32-.06-.52l-.02-.73v-4.2c0-.56-.1-1.03-.25-1.42-.16-.4-.38-.7-.66-.95-.27-.25-.6-.43-1.02-.54-.4-.1-.85-.16-1.34-.16zm-80.6.22v8.6h1.88v-8.6zm4 0l3.45 8.67h1.4l3.58-8.68h-1.84l-2.4 6.2h-.02l-2.25-6.2zm34.46 0v8.6h1.9v-8.6zm-21.13 1.26c.3 0 .57.06.8.18.2.12.4.28.53.48.15.2.26.43.34.67.08.26.12.52.12.77h-3.6c0-.27.05-.53.13-.78.06-.27.2-.5.34-.7.16-.18.35-.34.58-.45.22-.12.47-.17.75-.17zm53.7 0c.3 0 .57.06.78.18.22.12.4.28.55.48.15.2.26.43.34.67.08.26.12.52.12.77h-3.6c0-.27.04-.53.12-.78.08-.27.2-.5.36-.7.16-.18.35-.34.57-.45.24-.12.5-.17.77-.17zm-15.45 3.33v2c-.16.14-.38.3-.66.45-.3.16-.66.24-1.1.24-.5 0-.88-.14-1.13-.4-.25-.24-.37-.55-.37-.94 0-.4.15-.7.44-.93.3-.22.76-.34 1.42-.37zm26.35 0v2c-.15.14-.38.3-.66.45-.28.16-.64.24-1.1.24-.5 0-.86-.14-1.1-.4-.26-.24-.4-.55-.4-.94 0-.4.16-.7.45-.93.3-.22.76-.34 1.42-.37zM137.8 29.83c-.3 0-.6.04-.94.1-.34.1-.65.24-.93.46-.3.22-.53.52-.7.9-.2.4-.3.9-.3 1.5v1.3h-1.2v1.5h1.2v7.13h1.9v-7.1h1.73l.53-1.5h-2.27V32.6c0-.4.1-.7.26-.94.17-.22.43-.34.8-.34.18 0 .37.03.55.08.18.05.36.1.53.18l.36-1.42c-.25-.13-.52-.23-.8-.28-.28-.06-.53-.08-.74-.08zm44.56 0V41.1c0 .5.14.93.4 1.27.3.35.75.52 1.4.52.25 0 .5-.04.74-.1.24-.05.5-.15.78-.3l-.24-1.4c-.13.04-.24.06-.34.07h-.22c-.25 0-.4-.05-.5-.18-.08-.14-.12-.38-.12-.73V29.82zm-70.8.78c-.62 0-1.15.08-1.62.25-.47.17-.87.4-1.2.7-.3.3-.55.63-.72 1.02-.16.38-.24.8-.24 1.23 0 .47.07.87.23 1.2.16.36.36.67.6.95.36.4.8.74 1.3 1.02l1.42.8c.46.27.84.56 1.16.86.32.3.47.68.47 1.15 0 .28-.06.5-.2.7-.1.2-.28.34-.5.47-.2.13-.43.22-.68.28-.26.05-.5.08-.75.08-.57 0-1.08-.1-1.54-.3-.45-.18-.83-.38-1.14-.6l-.8 1.45c.4.24.87.48 1.44.7.42.17.94.25 1.5.3l-.42 1.33.5.02c.3 0 .5.05.64.12.13.07.2.18.2.35 0 .17-.06.3-.2.38-.14.08-.3.12-.5.12-.16 0-.3-.02-.44-.07-.14-.04-.27-.1-.4-.15l-.26.78c.15.07.3.13.5.18.2.06.44.1.74.1.2 0 .42-.04.65-.1.2-.05.42-.13.6-.24.18-.1.33-.25.45-.42.12-.17.2-.38.2-.62 0-.22-.06-.4-.14-.54-.08-.15-.18-.26-.3-.34-.12-.08-.26-.14-.4-.17-.17-.04-.3-.06-.42-.06l.2-.65c.36-.04.7-.1 1.04-.2.5-.15.93-.38 1.3-.67.36-.3.64-.64.86-1.05.2-.4.32-.86.32-1.37 0-.6-.13-1.12-.4-1.55-.26-.4-.58-.8-.97-1.1-.4-.32-.8-.6-1.26-.82-.45-.23-.87-.47-1.26-.7-.37-.25-.7-.5-.96-.78s-.4-.6-.4-1.02c0-.47.2-.82.56-1.04.37-.23.82-.34 1.34-.34.5 0 .98.08 1.43.24.46.16.9.35 1.3.6l.02-1.8c-.32-.16-.7-.3-1.18-.44-.47-.14-1.02-.2-1.67-.2zm80.12.1v12h1.9v-7.68c0-.2 0-.4-.02-.57 0-.18-.02-.4-.04-.66h.03c.13.24.25.46.37.64l.32.5 2.96 4.34h1l2.73-4.28.35-.56c.13-.22.24-.44.33-.65h.05c-.03.24-.04.47-.04.66v8.25h1.9v-12h-1.84l-3.24 5.07c-.17.27-.3.5-.4.7l-.3.54-.32-.55c-.1-.18-.25-.4-.42-.64l-3.48-5.1zm-71.68.86l-1.9.6v1.93h-1.5v1.47h1.5v5.37c0 .57.16 1.04.47 1.4.32.37.84.55 1.55.55.42 0 .87-.1 1.35-.24.5-.15.94-.38 1.35-.68l-.53-1.24c-.18.12-.4.24-.65.36-.27.1-.54.17-.82.17-.56 0-.83-.33-.83-1v-4.7h2.07l.6-1.48H120zm8.15 2.32c-.6 0-1.1.1-1.58.35-.47.24-.86.56-1.18.96-.34.4-.58.86-.76 1.4-.18.54-.26 1.12-.26 1.74 0 .58.08 1.15.24 1.7.17.55.42 1.04.77 1.46.33.42.77.75 1.3 1 .5.26 1.14.4 1.87.4.5 0 1.03-.1 1.56-.24.54-.15 1.02-.38 1.45-.7l-.5-1.24c-.34.2-.7.35-1.05.45-.35.1-.73.16-1.12.16-.38 0-.73-.07-1.04-.2-.32-.12-.6-.3-.8-.52-.24-.2-.42-.47-.54-.77-.13-.3-.2-.63-.2-.98h5.55v-.53c0-.67-.1-1.27-.26-1.82s-.4-1-.73-1.4c-.32-.4-.7-.7-1.17-.9-.46-.22-.98-.32-1.55-.32zm16 0c-.56 0-1.1.06-1.63.2-.52.13-1.06.4-1.62.78l.64 1.22c.26-.17.58-.33.95-.47.35-.14.78-.2 1.28-.2.48 0 .9.1 1.23.35.34.25.5.67.5 1.28v.25l-1.6.06c-1.12.05-2 .3-2.63.8-.62.47-.94 1.15-.94 2.04 0 .42.08.8.22 1.14.15.33.35.6.6.84.24.23.54.4.87.54.33.13.7.2 1.07.2.6 0 1.1-.1 1.5-.3.42-.2.76-.44 1.04-.7l.36.8h1.6c-.05-.08-.08-.2-.1-.32 0-.13-.03-.3-.04-.5l-.03-.74v-4.21c0-.56-.1-1.04-.24-1.43-.17-.37-.4-.7-.67-.93-.28-.24-.62-.42-1.03-.53-.4-.1-.85-.16-1.34-.16zm10.93 0c-.6 0-1.13.1-1.6.3-.5.23-.97.52-1.46.88l-.22-.97h-1.58v8.6h1.9v-6.1c.33-.26.7-.5 1.1-.7.4-.22.82-.33 1.25-.33.3 0 .52.06.7.18.17.12.3.28.4.47.1.18.17.4.2.63.03.24.04.48.04.7v5.16h1.9v-5.75c0-.55-.07-1.03-.22-1.42-.15-.38-.35-.7-.6-.95s-.53-.43-.85-.54c-.3-.1-.63-.16-.95-.16zm13.15 0c-.67 0-1.28.1-1.83.35-.54.24-1 .56-1.4.98-.37.43-.67.92-.88 1.48-.2.56-.3 1.15-.3 1.8 0 .58.08 1.14.26 1.68.18.53.44 1 .78 1.4.35.42.78.74 1.3.98.5.23 1.12.35 1.8.35.6 0 1.16-.1 1.68-.28.5-.18.94-.4 1.28-.64l-.5-1.26c-.3.17-.6.32-.95.44-.33.12-.7.18-1.14.18-.43 0-.82-.08-1.14-.23-.34-.15-.62-.37-.83-.63-.22-.27-.4-.58-.5-.95-.1-.36-.16-.75-.16-1.15 0-.43.07-.83.2-1.2.13-.35.3-.66.55-.93.24-.26.52-.47.84-.62.3-.14.67-.2 1.07-.2.45 0 .85.05 1.2.17.37.1.7.27 1 .48v-1.62c-.26-.16-.6-.3-.98-.4-.4-.13-.85-.18-1.37-.18zm8 0c-.58 0-1.1.1-1.57.35-.47.24-.87.56-1.2.96-.3.4-.56.86-.74 1.4-.17.54-.26 1.12-.26 1.74 0 .58.08 1.15.25 1.7.17.55.43 1.04.77 1.46.35.42.78.75 1.3 1 .53.26 1.15.4 1.88.4.5 0 1.03-.1 1.57-.24.53-.15 1-.38 1.44-.7l-.5-1.24c-.33.2-.68.35-1.04.45-.36.1-.73.16-1.12.16-.4 0-.74-.07-1.06-.2-.32-.12-.6-.3-.8-.52-.24-.2-.4-.47-.54-.77-.13-.3-.2-.63-.2-.98h5.55v-.53c0-.67-.08-1.27-.25-1.82-.17-.55-.42-1-.74-1.4-.32-.4-.72-.7-1.18-.9-.46-.22-.98-.32-1.55-.32zm33.77 0c-.57 0-1.12.06-1.64.2-.52.13-1.06.4-1.62.78l.63 1.22c.27-.17.6-.33.95-.47.37-.14.8-.2 1.3-.2.48 0 .9.1 1.23.35.33.25.5.67.5 1.28v.25l-1.6.06c-1.14.05-2 .3-2.64.8-.62.47-.93 1.15-.93 2.04 0 .42.07.8.22 1.14.14.33.33.6.58.84.25.23.54.4.88.54.33.13.7.2 1.06.2.6 0 1.12-.1 1.53-.3.4-.2.75-.44 1.03-.7l.36.8h1.58l-.08-.32-.04-.5-.03-.74v-4.21c0-.56-.1-1.04-.25-1.43-.15-.37-.37-.7-.65-.93-.28-.24-.62-.42-1.03-.53-.4-.1-.86-.16-1.34-.16zm10.28 0c-.38 0-.76.08-1.13.24-.36.17-.8.47-1.27.92l-.24-.95h-1.58v8.6h1.9v-6.2c.27-.27.56-.48.87-.63.3-.15.6-.23.85-.23.34 0 .67.08.97.24l.73-1.68c-.14-.1-.3-.17-.5-.23s-.4-.1-.6-.1zm5.88 0c-.58 0-1.1.1-1.58.35-.47.24-.86.56-1.18.96-.32.4-.57.86-.75 1.4-.18.54-.26 1.12-.26 1.74 0 .58.07 1.15.23 1.7.17.55.42 1.04.77 1.46.34.42.78.75 1.3 1 .52.26 1.15.4 1.88.4.5 0 1.03-.1 1.57-.24.53-.15 1-.38 1.43-.7l-.5-1.24c-.33.2-.68.35-1.03.45-.36.1-.74.16-1.13.16-.38 0-.74-.07-1.05-.2-.32-.12-.6-.3-.8-.52-.24-.2-.42-.47-.54-.77-.13-.3-.2-.63-.2-.98h5.55v-.53c0-.67-.1-1.27-.26-1.82-.17-.55-.4-1-.74-1.4-.32-.4-.7-.7-1.17-.9-.45-.22-.97-.32-1.54-.32zm-98.05 1.47c.32 0 .58.06.8.18.2.13.4.3.54.5.15.2.26.4.34.66.08.24.12.5.12.75h-3.6c0-.27.05-.53.12-.8.08-.24.2-.47.36-.66.16-.2.35-.36.57-.48.23-.1.48-.17.76-.17zm48.1 0c.3 0 .56.06.78.18.22.13.4.3.55.5.14.2.26.4.33.66.08.24.12.5.12.75h-3.6c0-.27.05-.53.13-.8.1-.24.2-.47.37-.66.15-.2.35-.36.57-.48.22-.1.48-.17.76-.17zm49.92 0c.3 0 .57.06.8.18.2.13.4.3.53.5.15.2.26.4.34.66.07.24.1.5.1.75h-3.58c0-.27.04-.53.12-.8.08-.24.2-.47.35-.66.15-.2.34-.36.57-.48.22-.1.47-.17.75-.17zm-80.63 3.33v2c-.16.13-.4.3-.67.44-.3.16-.66.24-1.1.24-.5 0-.88-.12-1.13-.37-.25-.26-.37-.58-.37-.97 0-.4.15-.7.44-.93.3-.22.76-.34 1.42-.36zm65.83 0v2c-.16.13-.38.3-.66.44-.3.16-.66.24-1.1.24-.5 0-.88-.12-1.13-.37-.25-.26-.37-.58-.37-.97 0-.4.14-.7.43-.93.3-.22.77-.34 1.43-.36zm-99.78 13.7c-.6 0-1.14.08-1.6.25-.48.17-.88.4-1.2.7-.32.28-.56.62-.73 1-.16.4-.24.8-.24 1.25 0 .46.07.86.23 1.2.16.36.36.67.6.95.36.4.8.74 1.3 1.02l1.42.8c.46.27.84.55 1.16.85.32.3.47.7.47 1.15 0 .28-.06.5-.2.7-.1.2-.28.35-.5.48-.2.12-.43.2-.68.27-.26.05-.5.08-.75.08-.57 0-1.08-.1-1.54-.3-.45-.18-.83-.4-1.14-.6l-.8 1.45c.4.24.87.47 1.44.7.57.22 1.28.33 2.12.33.58 0 1.12-.07 1.62-.23s.93-.38 1.3-.68c.36-.3.64-.64.86-1.04.2-.4.32-.86.32-1.37 0-.6-.13-1.12-.4-1.55-.26-.42-.58-.8-.97-1.1-.4-.32-.8-.6-1.26-.83-.45-.23-.87-.46-1.26-.7-.37-.25-.7-.5-.96-.78-.26-.27-.4-.6-.4-1 0-.48.2-.83.56-1.06.37-.2.82-.32 1.34-.32.5 0 .98.07 1.43.23.46.17.9.37 1.3.6l.02-1.77c-.32-.17-.7-.32-1.18-.46-.47-.13-1.02-.2-1.67-.2zm20.04 3.27c-.68 0-1.28.12-1.83.36s-1 .57-1.4 1c-.38.4-.67.9-.88 1.46-.22.55-.32 1.15-.32 1.78 0 .6.1 1.16.27 1.7.17.53.43 1 .78 1.4.35.4.78.73 1.3.97.5.25 1.1.36 1.8.36.6 0 1.16-.1 1.67-.27.52-.2.95-.4 1.3-.65l-.52-1.25c-.3.17-.6.32-.94.44-.33.12-.7.18-1.14.18-.44 0-.82-.08-1.15-.24-.32-.16-.6-.37-.82-.64-.22-.26-.38-.58-.5-.94-.1-.37-.15-.75-.15-1.15 0-.44.06-.84.2-1.2.12-.35.3-.66.54-.93.23-.27.5-.47.83-.62.33-.15.7-.22 1.1-.22.44 0 .84.06 1.2.18s.68.3.97.5l.02-1.63c-.26-.15-.6-.3-.98-.4-.4-.12-.84-.18-1.37-.18zm8 0c-.58 0-1.1.12-1.58.36-.47.24-.86.56-1.18.96-.33.4-.57.87-.75 1.4-.2.55-.27 1.13-.27 1.75 0 .6.08 1.16.24 1.72.17.55.42 1.03.77 1.45.34.42.78.76 1.3 1 .52.27 1.15.4 1.88.4.5 0 1.03-.08 1.57-.23.52-.15 1-.4 1.43-.7l-.5-1.24c-.34.2-.7.34-1.04.44-.37.1-.75.16-1.14.16-.38 0-.74-.07-1.05-.2-.3-.12-.58-.3-.8-.5-.23-.23-.4-.5-.53-.8-.13-.3-.2-.62-.2-.98h5.55v-.53c0-.67-.1-1.28-.26-1.83-.17-.54-.4-1-.73-1.4-.33-.4-.72-.7-1.18-.9-.46-.2-.98-.32-1.55-.32zm9.54 0c-.57 0-1.12.07-1.64.2-.53.13-1.07.4-1.63.8l.64 1.2c.28-.17.6-.32.96-.47.36-.14.8-.22 1.3-.22.48 0 .9.12 1.23.37.32.24.5.66.5 1.27v.26l-1.62.05c-1.13.06-2 .32-2.63.8-.63.48-.94 1.17-.94 2.05 0 .43.08.8.23 1.14.14.32.34.6.6.84.24.23.53.4.87.53.33.13.68.2 1.06.2.6 0 1.12-.1 1.52-.3.4-.2.75-.43 1.03-.7l.38.8h1.58c-.03-.07-.06-.18-.08-.3l-.04-.5c-.02-.22-.02-.46-.03-.75V58.7c0-.55-.08-1.02-.24-1.4-.16-.4-.37-.7-.65-.96-.27-.24-.62-.42-1.02-.52-.4-.1-.86-.17-1.34-.17zm18.05 0c-.58 0-1.13.07-1.65.2s-1.06.4-1.62.8l.64 1.2c.26-.17.58-.32.95-.47.36-.14.8-.22 1.3-.22.48 0 .9.12 1.22.37.33.24.5.66.5 1.27v.26l-1.6.05c-1.13.06-2 .32-2.64.8-.62.48-.94 1.17-.94 2.05 0 .43.08.8.22 1.14.15.32.35.6.6.84.24.23.54.4.87.53.33.13.7.2 1.07.2.6 0 1.1-.1 1.52-.3.4-.2.75-.43 1.03-.7l.36.8h1.6c-.05-.07-.07-.18-.1-.3 0-.15-.03-.3-.04-.5l-.04-.75V58.7c0-.55-.08-1.02-.24-1.4-.16-.4-.38-.7-.66-.96-.28-.24-.62-.42-1.03-.52-.4-.1-.85-.17-1.34-.17zm-49.8.22v5.55c0 .67.08 1.2.27 1.63.2.42.42.75.7 1 .28.22.6.4.9.48.34.1.65.13.94.13.6 0 1.1-.1 1.55-.3.46-.23.85-.47 1.16-.73l.36.85h1.57c-.04-.1-.07-.2-.1-.35l-.03-.53-.03-.78V55.88h-1.9v6.38c-.2.2-.46.4-.78.57-.33.2-.7.3-1.1.3-1.08 0-1.62-.62-1.62-1.83v-5.43zm36.55 0l3.47 8.67h1.4l3.6-8.67h-1.85l-2.4 6.2h-.02l-2.24-6.2zm-14.4 1.26c.32 0 .58.06.8.18.22.13.4.3.54.5s.25.42.33.67c.08.24.12.5.12.75h-3.6c0-.27.05-.53.13-.78.07-.26.2-.48.35-.68.16-.2.35-.35.58-.46.23-.12.48-.17.76-.17zm10.92 3.33v1.98c-.16.15-.38.3-.67.46-.28.16-.65.24-1.1.24-.5 0-.87-.13-1.12-.38-.25-.25-.37-.57-.37-.95 0-.4.15-.7.44-.92.3-.22.77-.34 1.42-.37zm18.05 0v1.98c-.16.15-.38.3-.66.46-.3.16-.66.24-1.1.24-.5 0-.88-.13-1.13-.38-.25-.25-.37-.57-.37-.95 0-.4.15-.7.44-.92.3-.22.76-.34 1.42-.37z"/></svg>